<mxfile host="app.diagrams.net" modified="2023-11-27T14:19:33.219Z" agent="Mozilla/5.0 (Windows NT 10.0; Win64; x64) AppleWebKit/537.36 (KHTML, like Gecko) Chrome/119.0.0.0 Safari/537.36" etag="CgrDPnVipoHrFqinxDf6" version="22.1.4" type="device" pages="2">
  <diagram id="gEpGyBC4D6MLqtkJFPbZ" name="Page-1">
    <mxGraphModel dx="794" dy="420" grid="1" gridSize="10" guides="1" tooltips="1" connect="1" arrows="1" fold="1" page="1" pageScale="1" pageWidth="850" pageHeight="1100" math="0" shadow="0">
      <root>
        <mxCell id="0" />
        <mxCell id="1" parent="0" />
        <mxCell id="qxiyLx1u7QL9JyjqSjR0-1" value="" style="shape=image;verticalLabelPosition=bottom;labelBackgroundColor=default;verticalAlign=top;aspect=fixed;imageAspect=0;image=data:image/webp,UklGRiZtAABXRUJQVlA4IBptAABwcwGdASqNAsgBPp1EnEqlo6Mhp7VMILATiU3fjHrHfKe5tyD+XqP+v/y/7t3pMx/G/2v+O/bv8gPm45b8Mve/4L9o/Il/e78/kf+x5dXs/85/5f8P7Y/93/6P8f7y/1P7DH9R/tP7B+6b/y+wj9yfVZ+yP7S+7B/tf2w/8Pxn/qv+m9iP+j/6r//+0T/yv//7un9o/43//9zT+gf67//+vD+6/w+f3z/ofvL7X///1mX71+tPo0+m/tP97/tv7W+evkh9Bft/+X/1X+C+kL6+yH9V/+3/rPUb+Wfa39D/d/81/0v779Nf43/ffl3/gPQ34e/3f+B/Kn5Bfyj+Xf5n+6/kp9FH4/+/7a/cf9Z/3PUF9nvpf+5/wH+R/+H+i+Uz5f/a/4f1I+xH/b/zH5PfYB/QP7T/zfuR+dv+f/5/F9/E/679n/gC/oH91/7n+N/0v7WfUR/d/+f/Pf7P96fc99Of+f/PfAd/Ov7X/3P8P/qPfc///uv/b7/6+7P+xH/yNLcTJSaxCs76caiC0DRepdiFZ3041EFoGi9S7EKzvpxqILQNF6l2IVQs1J9Zg2v0jwRzrwSL1k5gvlekSyCwF7SrL/PX9xxN3S9xEFVriX0LA6OC/y9H95OG7hVm2q1O6y6aiG2ijmzwIjs/3ZsrS29mE/EG15ew6jLbP8yQOfE6jC9z8VEZEsq6UTy5yQn8s3XyZ1v4BuNKNRZbaWi64TJrM02ezAbrctZH4N1JEIXNd7odiJld/WHgiVS/JMg9saR2fndLeNXBoevrVzqEPLgqHRIFHWdjkjczHtiKL1dTcv5jdO1/yPDpyPikVeIjNyLj1GZXDLTbTFQIfenT7kHCnw6Dx72f5F8eL7L0UI7d1l0XL+aNrmLG9iCp4X49AVxye3jf0a8RjCSsuWImm0rajmppEWiJLu5sxXEYOmmUjjTMvVHe/3FftKfC2u4wRjB+osAEhHdm6EL/TCRNPZJTNyXVIsMLXeYsdC+V52H7M0Pl/kfzhCaEH4EQzQSCt3znareeoqIbbImw3L+eCdRI6ycBcE2KY/qdFSpung74yAIZ+hOeB5+KTSibmXFKw9zv+Jhrzn0kFkjy833bvLzzsUtVv6wGlOSyvttXe+lRc3SAufFMfl+WZ//Fm2g1NEIcDaw0jvNs9jc8sp9osLW7tWJvQw3vyadfkw5+oSPNNWAkWiNPXiYzS7FnKNRcTDptf1AqVuaxXXOz/2L88VDTReM+BW3eKmvg0Hjk45WjwsA4V/E8sWm7pOjkGsuUV3cn/HWKcvzTtxJ/KPoo07YM/tlKjufD0MmfCENdkz4Qhaml/HqW7mS7K17eL2ypds/tmGp7tJLwd0IYRfPIFakIiQw0DRepdhqo9M9T/N1eKw0jjKhzalwffuX5KumsuogE5I7XGipQgoQTUoxzz3E+TdAJFabNbLN3fH6brmqkuuafMc7Kr7WXvDM5nBhs8mGhBjkxLV5HdMiZWheBfMl2QGIKspuS63odHWU2pU33hzueYofAhJcQMA9XyE2729vaYBIlk/wJY7eJrNlABiq079wNJ50KYf1mTIWj9tHwAMmKkKt1Tx6YLFuzivaQ6v93yizi+v/Oct9Zze8/FGqIcODXChX2B2DZR57qhOViEn6fjnZHoA1+lao6G99WfKV6GbsUSb++QgQYvnO7ft9ZQxYUD9mLIgezExKmHax/RB2c3HstVhwHIuwtTFYSrLj3xDxOyIY2iX/MlMDop8H4aBtQrkAU3hG4GOFgTLEQfRyH9GaRnI7Q0p4HiH4p4lfh/kKPoK10cH2IcoonK+yB7/N7QWsCjQcfXJGWj3Ad9nDTNm1HpQ/cLfkjopJnZIKsGin+rgy+tqLZcdxi4UDTTKVy4u6K5pDjQS4YfMZF0ZRH/0hnrOD2qsZwV8Jp/kaiKBFEkhS8fRcsVu6wdm09G1gVXcM8UJz22P+KcVKFWNWOGj48oRCg0WxzwyZ9MFQtVF1sdT9MGHdeLYcE1DUul73Ilrvu6Q9WqZCO91XJvJdUUNCFW6p49SGhkuzqFV1IM98P83GVIPFnzoDvGwOeBy4mEFiTz0xLEVPPIGKgcAMAsiHtkVbhhS85dEla0wNaaXLtgYP0VdS3cvT7Qc+yvQ+afR6lu32+/yub2GkY9IbC1ysWz0eRE7N88Vk7p7/GSh498idu5Djk1IU58+wmQBYUuI8ZPD7n2xM6+JtF6l2IVEc9D1bVsJUcqmO9Ihwr6caiCzV9LNM79ofeoOfMSwvdxM7EPzeWK4MOca7N/9lZtZe7Ar7FrQtQpgl4l/HqW7mS7KtT8fhQgoQQhaml/IEY+3nO/hRox22kpmj1LdzJdlWppfx6lu5klGYgiMwKWwZ1cHS313DQhdj8A01VfuX5RmlCgmEH9b/8V7VDbON0v/NlAmws2lf7TdBw6ZsSrMb0gTTrjoAeZbtbeelQZECBcxv0WIxlJkfl4JkPEFD5STUJ90OErKYX1PbKM4So57uNijF77mqnSs+wm4A/kSfc8LZOkQ7zsw3xIeSKxYJeQOs/b9yAvfuPpsbNlCznE3w8ixdIaw22VwBrPot34MJy2Qg1UaeeIjm1TABzNGPJHC6NOtkfe1nHLmh3yZPIYOdH8brz9EzfxDoKGKfjHcXbJBWNosB0GpaeWRNWuzVRfTVHXBf2xR7XWYEDJcK5cfEtEGRZPbTd9v1fOjT9sztJRpIZhArIEMP1AJltz9behu6P10et/6gs3i34h0VrAxNl1EYhA85Sva4Oa1qOQeArVC8eU0IOe2vS5Sd4dwTnDIsCr2mpJgl04qkGM/IqOCS125KnEQ6IZPKbfalhIxi5cfczdIb0kJKF94RgWGJGxH3lO5Gr/8r2IbMLb9RHni/ks3ycFATh3jOcQZETy3KR/lNWRGXmJMfqNYcI7U7PfKvVy/HW+1W8an74mTY8Ko5olJf8vH+g5uKOR8fFPI+nlYRFIpNSlCVK5bNd6SNzBaRgAuFkYRXHU+wvrLYHGJr3/lOMMl/7gzf4aolPaN+nIpMSHtND7CJIpzmENrIcYdBT5+ZMFUrovtv18qqeKVgCTRomnmpS13F+wNqZsunxlJf84MDQpo87x2xeHJu5wCk7LQLJ8gUUFh/V5tLsEaMJz2NED4G9yuahOTMRPhGg66dRyF0MZ7c73DevRN/via1116u1sy4951EfX6XDuknDzPUZ3mYglbuw2/xuMBhL7Yj6tEHLqNF32JRJjlpY4sgsDhkTElDDNRRisskl2gL/CX0PP33ZoqcPHsvV8AYyxS824BI6yDAaFfrc7bqLbMCWdSl/JoCROure8BkUB3L0AvC84Q1eDl17meUuSd4ngGAn/9OkSIGuqz/ezg4V8jyeEanANOgyE5xpP37s/zz9S/w3kOErK1laz/sdAy//8iMI4k08DFr/ec7E5hIISXKtugQ1G20C+vM3Texuhbv0TfZICLvi/8Kwh8I7wmMe7p9EAU0Ee17uSOKgteDtDHNnlfrrNc04wmwG58Q5v4XQIsEBQMWq6fAbFdr8A9fPozR6FT+fZF1+xcf9WI4JYUUjJRqzpU2SoIeiAwOyR30O5TZBLvjhRILfysHwJwZPJhnoUJ4+lJw/6PoL4k9hX+wu/p/sdt5W35raD5klYqJQ+fAT4a5NyHXs2u5kuyrUuVqfgw7zzv//qEnE40zFy0K5qIQUgFZb4aY+Ls8fs7I0I9BjvRRB9Ov8D7ttYKIL9WOfL2g5llUU3KbqRxekxHAkR5hnsLqF84dc6zoNyuUkPQph2Hv+WtSeFfdNWUSjs+35E2OLWCHVB93bllZORboRrd8F1zd+AqNQ8fmaHESeHiwkyk8UrKjM4fXzEMGSpINAIoThd2No2Se+iYFiZu2ZcBC+cOpf9rPL/OqF0D2H9+/UuPJPcb9YCR1yrVRwAiW2+i5tQbbck97Nx9uHHKsBI65Vza7nTk0R49DEAP75InF51VF/BbbMv01juwfGv9/zI6QkEmn22r2leYH3xrTzFxXhhTSS/nGjVU0shGDII6KeX0Ox9SziyBWyeTUPUMcZAk8vodj6lnFkCtk8moeoY4yBJ5fQ7H1LOLIFbJ5NQ9QxxkCTy+h2PqWcWQPe6cXUAMUeOj7tQeaO96hcIr9VFHoCIWH/YmnN8UnuHQMC4LLN084UM8ow/2RkupTMWhhyq1wi6KjHTVRR40RYopLUY0PCBNR7CxjNahxTf921HqVLOQQ2EDhnxYLqS12Wqjbo7Uw1v7Hbv1qaqRB1kgWpJbpL8jTLm8yIDMtbAWDHGeaUV4ovM8hpx0CS+xCvEjiYyr0hklQJmvZy6wsPeWwHLPdgZuhyoVrEMg7PAZuHfm/j/sLxwiOY+RJvYm3THNYh3XSLr/DBZgCRR4xZfcYJkYQ5KC17/RaMRhWnyh0c9IUgX6U8yUNVOIEo4fWbEa+t7gw6XraK+NRSZ+LQF0CuLm2idxrF0YZeCASdoL3xXVuVbxSyc8gIPURqNF51EJ5E+uW3ztDiesXK6++HgfkFaXvbOTf+iO6K2+Vemu6xEkc82VdQL2lbyBnWuBm/Q53on5wSPyonfZi2yHbfrrjSDQev4PXauHV+f6y7uySEHCF8jl5mHs2rUMoeSw2IVL61KcanDhRuzsKRUK9coXi2IKczJvJqDW6z/HXybNukloAlvfcXwQePtCpx+l4yj/0273KK6QHpv7g1/N/VQmSD+nNkciXiwuaqhIK6jtHHsJEjatDiyj09G47rTIyIT8OVmnzROanNsYKEMiFV18tVKT21ZeKnUlDschMleUQZDfJIdc1HOqVt2KhN9nxE4SXTxjisxy15R/RyQQIHXpc/6+jfhh/82a4icw0JIGnlQ/34f0NX2DCVm5WX4p5i5ksVGIfCZpn+zuPapNgWSlynJa8dqEK6yKlOSyfDIhONdBsIpQOer3L5Ja78J0uNA5LibMNnQtl/+dAJzbnzIcp1sduJL7kgM0kKQPOpv1/4spj4kQxdXCUEIDpT7PIemZu2buDIF4KulO6WcpzaKa2lepw2qqjQZiJe0lxze9w9vbIu2+I/f/8Kt+nMr3pOty7O13lhCR5z8Wlxxy8DMCLhvrHGgVap4dJ42BV4vq+52kochlJydpelF90hPf4sDJfHjeuSa0kO5OdnVoommjvYYEpu9Ka8fgUMn3aC/jZBoI3viob0RUkxy68JlugV/s1UZtUMJH1RA3I2komE2jv+KHdH0LvMqOBDE9GQTjinc8IEqGjFta/51aEPFtB12106nHNhedAX8jVHtnbyA/nMWzz9gnUVk2u3jpgap4q73iXQOGtX52WRZ3Z6HSaRfebvvpPt0dU1lTgsxdZj0RT69pKUtjW1NOguq0E7NudgDka2Q/p5HsGIh2P2jfu011oCjgIr7NythTOesNcEURDHE5QBudbtj1SSfrTmt3UBv8p7mEnZDnSgu4Qgh5ZmnR4AiWgaTL4hSgd9IAXf/6OVhI+hJDEoUUD0KIPfxrAGZQH5TARWCkUvYwpETt/o/HVpqFa4u+WYvlO4FKp7Q+AWkLwDZTUyYrQonNJIYiRygyWg7JZmnzhQO0n4SXwRp9xAOZT8Ep2rYFhc6tqqx9VoEIIgSTS/rJkgOL7PG0/ts6oa521QT15Ka/veLs5tRPaP88hm5VtPKJ/jHM4apMd4GF7NM7k76HWaS5mzqDip5bw64fcMrgFg/UsuaBjAsMbyKAaQ47yEDwzOTbK4lW+Pr4P0gZkWr6kVKpWjmQiTKaTHwPls1CV5aOgEZ0CS7MLvbPGeG9Xekvw/JKQbXyrQwpGkqRJQ/cb7HQGx+3v8P0/PJrfUwm5KmAuezH/yGOz/7Zzzoa6JpQ/4VrSG9xtm7UNfHAcSiprDOYBW/aFmIia54evmizjq8QMeFn8/DerG3VCsUPQxLRnBaucvO4Tp2hUs9L1L4oCnyRTimdy7SSCC4k4QpoxHKdOGK/x7CQ/fQpKtwkFVkz1GNk3f2w+KqnnVq2mxPDubDMVq5ze8zyHNpGTTy7qypDoaAr4VheYzooD5sVhZKyZlaTrMI/WChx13LTNH/EQAaIRpTrJ9SvoxL6ShRYmwP/7D4TXu7TvOTfyv2wePjFnsVbVOP6dzwbhU/1bIXyTrm9V9aNpaqe6/+FtOz7Iddzsx73sVq0TFKiuwGFv9OIJm9kTBCvmt3TkuebmmPHwvrvEMpVNhbk/CQreknhdVRdYlZPBPYosCf4b4+r8pLHMo1ShGPJwAT0vpdX0+nJpQGpboRDgx5uKYstTR5kwLq5RPmqVuYnElcETWKoEHlaO+xuK9+fRa7fUDrB4wEOI1MWGbMLy7kWJWkYkeXsDVECKdTWfUAi2KzUWHx2JfxgmJS7YjvQjkxCwsTcxzBcy2WJ+FGF4BloViD/o8XWed70LeOhtcrqWBdJc3Wf5+5S/7ABvOZnpDesnE1oOWbWQKCWxBHfCK58Xxk3xInCdQOhfk5+hpaosYX1UtItyLZJmy3uyF6e/ftNbBejULa76+sORpt+BaK4UoK596lcMoKEqsrx/4R9JyS80xWBWdmj3uoK322KeB5UzclQyWME4YzIWpqkIIe8LfjCCqpG897orUWkYVbG/ld8UjYZ7sVI2NDzZVejB2w/X7BCuh5eIY48Yk68c/ARWlHu4PISEI8ugDnGY12mfp+dlF4l6XBwW7NGq2x0B84eFQVifrpNgI6UF2Lt66VX4OlUoBY7a7Q6ZDB3mWDTCwS9jhv0fFRN5Ag/HU623or+rl1YfdWwhNbbSsABaYL2w0STkACVsIOjULUtyVIMacdest9eOqHT2/aVGLCUSERkOW1PauSZyefAnNMmntQwBHXsK1EbA1/l8x6SYeW5iNsgiOTTw6oOZU/bA5xDDwRRT7BFoAR1a7gbCXNx+FCkBG9wCz1+o/UEQIng3SV43eiJ8GJIBiV1f6VLHyeWDOBCmYNrTHkjSnMD1t4S4Y3VNshuTKdt2yhDAH3CBvRjVMt6cspyB7tzEa354YRSzjIjHlnXvf8X1gNfMXE7hM4HZ6m0guRXjMcJb3DMMuXNf90ZdIGOQIBugaFbWBH9dzSp0/dZvDjSY19nRGXStFfUi6kvhnfFwtTVVxFd4jmPAI1aMJADcHUBQt3XpwYxfhr4gVHWsMjyWs4iD1CA+IwTlUsxLhw1yz9GnCh4zCkDyUf8cbFyi69M9XPQd5Xf4W0pqGpNWzXTh/DhIpOTun6wOvpAl3pzxi8GTZrDIb9PTbMCB2m+2co+oASSu9EL96SWsb3XqoMjPAGeyMn3M0tGKCREi/j2NHOnT/gP3k4rNmfEgy8YZYaUTKa18btyPv2zBe55wiWtMbxYt6zO+WrOxF5ak96kt3ewLrzqZhkv++FQYYw+wwGtb5mqW3XbVvFnLsTQbUOhj40ugaJT8NMDGbCobTabSce80unRs+r3UzQ+fIJd9Y1IrfTPcxo3tu8LTJs0dVfz/Zxnez26SzNYUgTT18exkNv8ARjUoYhdWvonqk9dCzHMWWCkX8UvK99ykyL9xvWu+L3ICgdMzkQCqUPR6ii4Jm/yD/Ishbu3D8E1rSKNLJKMCib5XK6ycABLcGkbugZWXvzTW42hBzuErO1ddxeAy1tNunCszQOwD/4JM9lrWr5mkkLE9u7Pwh7m/8s/5/u4pArSo1xFGcuVyDyXjSOcbTBtIL+8PN+TQW53MKg2dEpxzigaElWB5XyEgyWZ0OKw9Tmvk0zx1ZxCAFi/e8/Cc9nYT9iCiPz8+DA8Eef1/YY49feCq6t7wAEJIRwuSLuZ789vkovNhxcJFqUQTI89po/oepQCXTajL4zunmtU9qV9joMnU2WpVjl1M0UlvICFABq+yoEp1bQDUmy6nyQk/+1yK6aEgh9wEz/+1+yyTBymhGjsEnGGv0y86NKfL9vMTEkv+6Uua5rP5CSsPJYlNqIEB7xNxy6bDGdFr5OqmfNrKktLkA8fz0LugKp5Dnlacx6jk/IiJbgGlflWB9VTl6KpCwxQacu/nCxT4A81fMtW2Pq2ImlDZnI9VzzVKEh8NxHUZI0G4VRAzq2sf3K5Y4UvA1x2/i/Owo597ndYWtsCCCboEFX1CRxcd9JUygYTiZlQ9c1KpxWMHNVZ75W/jzlZds0JQxVCsZMWBHl6l2vSSF8NdWqxQiVBFl1UycoYXRckdW+8+KpZSlFJYTlR4Jkpc6DtPrqQM4jvuE2eXOWg0CIrYvKnjLxn0k71Ycnasi9X5YbOBKIwuwU3DoiQ3x87ZT7wrSYDw0OictUiCjHMlrUMHeZFiwhzCuY1PVgCe4T3z83eiE2NW1TMXGWhWMKFidKq5hxhu5x3pmWjENsGdhE2myL0Jxe+PA/VHfw6dyG0cELASHAB8k7pW5SkrrJPT9bmKLWsenRZRK3Ue/kuDZFWrw8SvPHWAIVfN1V2VbSH3uqpby1EKcr/zGtU+PzARHuGHM4IGDhD9JAD+1EDQZvWrNL7zh/dd5YHuMv3rpwUIvn68au6/B0RCrbEGkR0VLX5v0DA+/D/lNuVQRUlp2cp0k4gjGzZaZES/dxVR8Xm44Ub9wN0ooWmOT0f7sddftm7E0MTZdzJDVs6uprNVqDIP+cF8vqgvHFB7jFaEIaOU0bfwbenzTF7SoDAu3GE0ghdpRllm4tnqLND7DsParKdOvh0nrfrZjqy+upDkVgEUTrxFJqTGHRf795efVGhWCJcjTaJZqhdA11kFM1MW54/fQUTj8VCwxr7m8Zu2Fg2WOPgZT9hYHz+8zaC3GvJ8hLBoONk9ZyMV08kTOFK30VG9dNKv4oYM9Z2mB/MTev/vWamvOaePKMp2u6CgX78P74F2EalY1xndHe+5A7n4C7jMgNbbdmBl+NBoWCvwVvC2EQNn22vAS4kHLvwU7Ge7Xj5nETAKjt2wWS55suvEJymCK3ZD3d9hAVg6f0vGUWVoyTCnIqT4s/o0Rjx3nsQdgEY1epXPIitl/yUsR0ZdmjNLc/fh15E87e8unx3r6Hv6FlIkX07CDKnRAxYzAFMNicm9ygk3STK3MhHlgaeWDC7qBVxtui3TcSpZ9y19bfDCkkiYfw6/paH3j5FUwPCCqAbrm1j2wX/yv22Bi365zMdPUfAvA1IELJqVEW4oEQ1FySTkcoZzf9f8qJYBejZPjPRdjD4WaUH7sgFwobfd5H/t65TY8ZBSAw9FRRRN4tM+HbmmbsYgWMql9EFVQofL5b5Zz1mMoiG52Zon+Wc9kFrY3l5NDbQYSOAY/5/bXs8Hwqj1tQalxL/5AgXxc9j01vE84mueqWT2FuVtJbZXiwtk/BJWnx7BEdTVdt8Ehp2Hh69wNmDxir1y0aKUqXYmAtDo5VdFa41yy6x66FiqA6tTFOixX54xKBvlNok4YcKo+ejNOqSsdob9ZCLqMWgPUo2NutqKpCIn5flexDeMy4S/DyMCybERgCiEtQFWzk/F02ws5BOHZEnNURd0Sfk4R6jWL1xwyHG+VCHf/Cp5Eiql4dBOYAW0oELPNenlzcvUycQK5MazC89pG12gI459f3iSf/bYGG9mzIe1MieE76xNssAIFcz6JfXINYoWJ6eHBXINXb6uDRzDb2TaJ1s+216EPDUTE7LcwZLo2O91hOKb1VgQaOmGs5GKqxBO8Sq9fiigW2n6PyOfOKTMX1lnS06SdL8p3oV3si649URwdqeTAcm52gR66NKPhhfKGbkMoFAWywY5ZmP+HfM5Zqg7o2h58Wl/0vuq3sSKHxAmw9Dn5VyDLeB5MOaguytGpJtszCTIh6xOzlYwcr5r/o237xUs/bvhDQcJWrG5j8rjrT9itUVVJTiMBG1du5CZc4OL8/wuCrJKXLqlnnB4CRTQpuM+bMrlDIXi6+IoINpCzlnXpz7Hr8SqgkEc3a513Ctc6JVuPqkd3yT+2Eikp3EVbP0THoZSdefGUqKnyP7aFr6Y1nzgf2NPgQUzdy42w3OE13n+mVC3B88MRbzv6FJI/+by0OIOiDkjHMvaM67uTFCQDSIjYDf4Sog5Wj0hyvzlbbEHIV6aIXd9fQQvGFqPEwoX+2UmTj/lYX33Pf72tsAeO9AAqaBPiV8dX2xzJ7FnhwNmnzKtgKSgRqwoeoR2ka2vEJk3/zd/1iD7oSvgQm75YugFgVBtHDDaLHFWQkiBDexgwVDWDkswQhV/lPSh6iit2DMXPYLvJA+agzgwoZGuMofRTplLcbrYlr+NQuIYvBqi57UDaoSgFHkaECnXE7Qkj/ZU2BoGQM+zEL5/FlvRs8EFSD1AgGkoKzkmPJVTVPk7JQ/SAdBgsxVUwRV0PhDfFvJ3EHfT+XvGP2xTxpRHnhwNIZklYs1ISqrQhzI4BgFR84M7JuCPnCHUFtrOn7QIFGCV4vn9MC9fdf4c67WIXrn6qbMR1w949wGhJO7V1oeFUBekrLAxKHsndDhSjH3kt0b6qDwIIzu/yO+h918NaY9ebgBOA0+3qCmVgyvIUy93sBeVWBouGhduhnMBj/q0unKO6jgfLmNCwJlYQcv0z71Dz9P+iYhJhFJzjQ6hUgUoEBD/mesLxQ1T79EgPqMdLZg8W3tdJsGxVNSNKkTEha8DO+ILH1AgBwBAAYx/ClOa4P952IWZYxd6Px7Ul+pu5TtATDzCYuhD9ho0yBrxfwUsCAdAGOexuxtTwQ5Kknorzd5MYFBa3HIrPCmh6FdLiYynkkaoaiippwe4A4tU6lYl2VUbXokLXrC1v0xT3A5QAPJi1wmgAE8RPKCj2xNuUfhTS1TcNoWyqoaB+IEy9AKg5hYfsw+1VinmDTWSJoJKajOcdM29IyQvHEfHXDuQESA3uhkbnRs+168NIxWfA9tK2MjFSXgehL936kONliBozvk82I6f+bxsQSYsBDKr06WJ1Nckw2g7y/nR8ZQISPwC1HBIC+68qtpU9Kp/EooQB5Y1OhOVZl7s1Rt+WMttwFUQey9GTji2xVRp1iP+8sgbRelQu0MP5jiQ1wH30pMZ5xErc6/KivFnOYVKX51mAjaMo2VlX6ycXDpZSB/EhCcPZvD/Z9OXhJitwaUlne+87SKuS6jaAcdUeCeEHwSfXlBg2gLr//egw/RGuFJD6DbKy88kRq1tfP0DFaDjTWlS5N42YrVWEVM26lPSz2D+dE7wC5t+L2UiJoS75JfBFWYRis3CkClF3sRGJA/XC0lDmHhyKCo+0pxrbTqqpCHsoXYvtHvSrAOFFT9eJVKYW/khc594G6d8NUmpAAUOWK3eu36SXAtDd08byQiNWzkjjhJe8Et1z4zJMHkZ8x3kDEHTcrZLqy/EOLL63uYUOD0CzHFazNthANaXYZoF8Hbv0yqou81DlfTfbYmiL4sGkUhsd4w+UrwQOIR7F0DOJoKCNL3udft8oE9r5GTr94WlgsLHlgYjC6mKlbs45VxznDNAe1aJ4FAmiCRlknyiX3hn2ziKrImb8U+9EinjaXysVd138B1MG1brvx0dHPHikSj9uyLrag6Crj1bNuknfDgflLm6TRXQl2snclxKvHMZtjCBcRKEaa0n3hjTooEwX83UROgO+qEXybMnCu3QsFrun4q5Vg0OR3NY5uQ9DFiiKC92QVAlgTBSx341VChrNbKvJgUnJaR57EpOTcHGe+4qRRv4BJ+jqBMdx0PbTU2EWBEYvLOCm/5WvJunrPEWlBimF3j7OR4mReImeaa9UDwgBpU0si7zULwMrZJ9Ot0og91tR8FXP6ubaXwgsYe0Waez2JFIMjQxoo9Lfb3ClEqfTShZMsCJwcYnwQoahbHKCOGBiAl3QGkIEAemg+kK8bLKLwjHPRbKbOu6+N1x4IOYNMpDPsqzGTpmSRq5yk5Yx2NLMuHE9wW5KqaA959kLofVfxRVQc+MtshnGFcEjbzeXp4czpr9gSv08PycN66w85X9EGdhPzeVsYst6XsiSdltdTWsTUFI4FeuoaDG8E2ub5+AAphEv7/LsotIUHtikN1F0QJPmaPcJwes71kQQhexjLOf75rNNuVsAAJ5kpwcw4va4ozS4lPjuaV4as+wbWacs1YGx7AQpuf+X9qbaL2lf6VrFqmK+xTSu/FpD4ZuO0nwz0+7Hn5e9umQtOkVa3xO8L4HmslDW3CzBRzUmV+wC/FmW/xKkhFPpsOL5WHnHJjXdyDi4hcmeO5TRsvX5J4S07dFt/vmMd4QWhr9PgDLf+YuEw5cuDpJw/YFfiTF4MT10S91HXbMnoS4Z01d9z/wYUQHX2Y85HD3iG/19OSwUeTK89nVmrXwuBIfNncOl28iVIRotV/5ei4JcSx4czUEFPaoUTcqibMp8vNs2Wt1pEoiDHH3pwrWMmpuqxwzPuKkQyN3bLz1+4B6NIDsUT0P0fPBxUGk+O0a9xDQ+vxlGBVTYJqzw99r6qxco5waOpVsll0XRzFFG04TG7H2g+bpMvC8e1olWyfD8Xs9JTqjAJ3BxGexxsaTnWaaneVhNeN6SP5PHNOA+Xhwr0SXXQXCyvzzn6fRN/xuScORSep4nbaAAK77KoJQrxVgX2ixJFi+YlG+vKqvhpyZ/56tjWjRu7JK2F+KSQvD+pyYSexaaszhhE2qIV7rPNOSN5Fa2NZlGAI9K9vk87F7FDnFaXQNKfNKNLXZFpPwmu2z1rw73e1TEH0Tle5ponge2UXmjKE3PiS7YW5nZc8cUGe6ZmlcU/bKOaRkAVuD2wezlM1OiPS/MkyqFTaErtEJ09Z1kbWwTeOvdOyQdhx1BvAZqUugcU9slxJwtYvgOh1xMsKOWSR6Zh/9i91g+nZ8oEbSq/CUC1+lEKFjexqHsRClH13g6I0s+c6xZZcx529n5REOLnKeSZ21gvsJP7RxIAF6Kir84EebKemzVENNuP80hnSjii6tMXhqpHnJfJeV9UlxOP+7+yLir0CllvwJNkrwnrVEU13wAEu5RNxT/az+tpZmINLhkimMzNylbpQHFSvjGAgt1k6u8/da1S7SATOO6r7IafyU0rtomk5KQKjoih2CAa6HduUvMdVUzgRd2FL737Nfyg/kKG4TZcG5IEZs9mERQ6v79bUwXobjJffAZV8ZKn1IAs0eKJvYRMLT3S90aUZRThkISappA370OUePSBh/8QRMyCzqrKe/18c5446GPvtllOfCY3FUdbXhbKx+ADg1e1Vwea+JJUYmOxXNSszapBiaijqk7bfXHorNOQejz4cXXY80J0PfzSx6+N6CGwbmWxZj7vOy9JeTEuit4/OErQLhdAso3okEiMDNoyURL+Ck0SPdTnlRchXHaJHmwCAgNfuYdodeRRSui/PDiRUr5ySyfqg71OFdhdDAdTl6H19fEPTdJHWZOvWI0C8l4UjOD+4DeijNNezIOg7K/iwO0T1dsimbLhkrRiFb9mwAdk8RntCKqBk8pNbxvg5tmVqUdVYXTdze/bQiVi1meKBy4x1DiR8FPTpKM3VVSmWaeoCUfvpqvEbBaXaZyFi4p1C/eBjdQUJZ6fvyYLFLWld0w0JTrOGG73Y1H/nyGgI4naI8JJdy8TYIAiCPqq0elXd+G60CT2VvAdX5rtMukphkA6eu0agmee2MykhedpL6B6gpAvvusjZUDdE5Lg3be5yUkbEDPWDSQbw4TekeEo2P0FW+UhJ18rqipsKZrZN2O5Vn8vcvxqJxkXX8ydg+jC3BovQUDkMttK5cXMB259q9V0slTmUXtxJw4+IHxh5GyT+ACkh+aDSAc532FpTd3rhjmr7qsYw7+ZfOTk2veg3PhABtn22ADU64aQ0tFNmkrErUO2nPTi1GxPLJgGoDgh4TSUQwLjK9q5FRtwgtIuB6aiztHeeAIH3xlNIlBWAXRSnaJrMKAk3NxVWAFYop/2B7F/+FFW3h8N99zlwU3NmLsmdaUpEKZrBmRZUBQ0oVXx/ujYF9O/ve8i99iJdoOCEABKHWsPy8sYgThi1DarciqvODmwZaDxdsx3Jphzo37VTl0aBs6t403OXrnULXA5EIMCpQKWjFCgVRCjs1bOgZg/qOx1QAcKEMLHjiWdsWPOO6Q8hC5HawCtTHkkpWkT5Tt0kHk7Fs2Snt2YL9Y5oW6VNfEeRj6xVFpmE0liU9/QK3EX1UryV/s7Mi7Q5XDIjS5QcKNNxgTUHyP6UJc0H9EFwAF4wtqVHx8xb9cbiiPLYpKrXxrwMZMJKLO4deCnccZl8t8TbjLoCyaKUjBsnzdo8hMM/FY6v3tsvt5qVsO6f20IX0YXrVEE3DPLIlj2aqxO+SBbBRhxge+zHgpxcR1YKiLVKheYcpQpay0VhjAcHFQEszJFB6i03IHWUK6/3MAaoHaF3hd/vL2AqnoJb1AETj5hMGm9e+gfyL0KaF3d1irQVoePLrooHcs58aRi1OWJeSXzJ3m5/rr3b3oh1IEIrHdAzMTNrxGzDAhhHGaSvIZM0JTaXb1RFaiTxgISDBbmCQ7WT1AXFpi4BB5V0gWyDxiJqwsOD5/CJNG+EHEkFcDyyiubn0lLXCRxrhWtkAmk5nOpueJri1ANJAJGTYuDJ89e5R2GWwTq7nXgl96cnXeGejWb3wOymOttwO0PGHToQDJHacowGeeEp6/rq3j6104skqakkStYay/ED7gy1YQTOp9eEGSy9Laxn/9JNbR8EAmeHaA6+8ohQloepDt2UsdigK86uP0Pq4HFJfHTBuzGgsB3zgQsGV0Msb1qnJoPuy2VObnzDZ5JdCG1dwu0u4W8YEEsfmLIdAdWMwehRPNk/lnmgcaafT0Gt1+ZayyVCRGdFeDYZ6eUXoe5p8GcDtZlAoVZxbWXcoofuZbbOOYNzF/CZUnh3aK5bVYHMaCxzD2IxmBMvgrzrqJ1kESz6HnZULY5cNOInk+46/VU272+nxMR/0OWEOxTx5tbqrxb/WtiGh6yXMr9/GZN6Fh4LhHKQ6yPSiRm7ZEVcjB74Yrbzy7EZt1/NIvkfrN7EralIfUEM+PxmnbGbwNT1mUN8jBp9iYBT77wAhN5TYxLmij0YtHG3ErCHk6AV1kwpRL0XK5qdRfT11TcNMMufNKoe7xoAAOtm2G2Bs1rXDuuSML23ryCcEHrWQwzM+VPN1NCRGT/RhPzOPP1I4uUxBDKS5I0KAuYPrN/VEndWl5Uk1AGSZi4fE06H5eqWisjk+9xoShpefqwm9KFcLczALCUhwJa4csYUP6GJlqlWFq8K74mdMVic1y261lrPXOC3740uFhLZrBn2AgfHQJ1wBlGsc33SOHxiWyXwUFKqV2qILphXbk0GD97Ds4AOodoAw4WEb0ELJekrCGEY8pXBihMvCCgR1ti6oU7soM8vEfiAEwnx7riIiOR4NBHUg6QBziZzduT9UxtWCSZjgL79a2+0wQm/C/MSMV9Siv1pFbLmHo89fbRapG4v+kKfmjBlo9d8NVx8cDKgT641zUYA20nUWuuL6S7eAi/7rBgLQF7YP8DUevk/9K4Zy/MkX79L9CHm8B6iC1lOjK9hJOEhUZJCjBfwYKMw0KTdOL2hzEqMzQAvZAroo2RbpkWuGILcRlrEl6nG8TiDuULb6IZGhHMsS7Spr4347A8zpNk9lICuDcGxm7pXpAPWY9fZxjPc2G1XaQ0JhhZBEGHCFTbwg3ArIr+J36Uc0s7mW5XrJYmqTzGnJ+gEhfvrkeScWGmg/L4J5MFDKnmnt7kaGNp/RxPeMYxFKW/Rfx95Tohvbr3pRXue1yKxMmJvslq0iTjUy0gZzuPgbzQP0ZOrr47v+M6ZfSNm4LJYHojipPYhs2jqL7+xhFd2SJ8QzaK4NCywwJhS8INChmn3TQmnXdzR+q6vNDCJEFZRIXhe7rCVMxsSe6aVbZGph0G0a+iiwnsRpLJnVIgxDqfhlX2mOrHeNv5WhgO129T8xHlTpnYdWOGko36qiiUgUwwn5QilJTYbH/zAQMAZYSBASAQkcDIqNyrKkeQZG0It88ieF+agSYqPNg5+6u+WTQGiMLRJJksq5cwH+7PNQg2y0jP1+D1kUncTQGj+BTn3CUwexgb3a0PczyWtmMxzVzHDvCTK+UPM5/OyPf5vT/1uW4eWRma3S+rfN/zXNkLqLnCdi2AP7NjLxlJXdl6HxzYEQiIfTbosm04o1AWPFuMeLrqYuTjnWAMZPAvZrDtdo+R1Rrea8JSYmRgKyPzZf7kyaT4AE5xcNJpuTDFjWKPtUP4enXulRi+PSgIp/y6onFhd9LXUAFbOQu52+6aRPPCfZNhrcZ+nRSNssxQotDIocVMHrAFF4Tl/JCM+RZ6mPKl3SGs3vVr51mXYiYUAsFaBhk5WkyWGXmoZWIVfF4DO828S0T1iz+oEEhWHZ11fFGFupIKnrETBmiBJeMNAfGcbWp2YQAFlxoYKUVtEZfbkujWr1QQsF/Mbh0WMI0FjBqB8Duwn6VX7Hg4jLwRDyx+WrtHfOpCFlNWFRUvR7n6NfBBdH+QukFpSDazULDwI+6vWxIp4gGfDEivF+WX8xwVrBov9yjBv5OEC5REY1ylO6FqoVthrBmgJM77mEB1Px/I4/l6FdQSqj8SR8aWFLxP5aj1NO4vy84IYcCp2ru25RZ3mgp83KhDZPHwvdAUel4JYxgpeXlnGlmigniPbcNat9Qs2oZu/2biINA8SY4Wgu1f5lOjuse4hOJA+VxT+kXM2IVoKdcxRSaUUA9qPYxJBNLL9lRmh6E29mUixMyAlhGJvS7twawCPBIcyk2I9b1UE5VSy+WpbkMqQVKJwsuFX54y+tceIvS0ReRNS+Drm9yUO244ciCfHjt0T6E7WCQxoCA0/40fUSB2sH6esIdNcFZeriSeKtNk/mfROkI6zZ+4TViV0d3Zu/UZS4h5TP0p1Sh2IrUGvlTyaQIHBj3b76Dkh/TvJ2VJLy8Kt7gAiY4D4f8el5ojtjeGWkThi6GjqM1PNw8Mud6VoX3m1rv6+ukzxF9G9ZP3YTycsvhmKXfJmVL6koc4k8NfahdKu4BWOAhE67c9dhF2/GGpFAgRjPnRpg/QNuIUHKfC/x/bPm8u3OQBS3U+R7WLDwuNlMeez9IFr9DQ/wooy9B8DrR1vW4zMgyquMnb3c/kyGBmyAqCR5xneFA7+gtQqBJ4Fa/MwK928jJHnkxyWDkzqQTjQjGeZlpMJN9d3Y8cVDbs7tbB2P3YgWPj3ssTFxznjroK1XtO/tOKsequS3Q1UN39DIgOMb9ypAz0NEVBxIKIAT5GPfQiFaje6xQ8R59Dx3wu4aA5ZN47TbQoNjUr3be0V1MvCf7gO2pOHh8TpRr6/Zr9Svf8pUJPbeOrhieysRSNqSJmzR0eFMlkqZVaFYgfxR/gRUrNu8NIoPZf/neqVnAMC5HcKzy5shEaji8xgKibqnf/V06hLio1pSoN9Gz+BXbrnwugxuAu+vU+b6zRVKOuv04vGAZ6MSruNqC3EY1eMnjKcWyAA/wcF6HxkmKqwDbmDR2gSEnq/NoVWhKZlSUGy4MvVaqhpdaNhq7yTWDNZD9v1avO4F0V8FRe0P1Fb4PF5LTO/dPPrFTp8fUtQLB16NthrJYEfYAXjdbD+FXT0/vrFwKG6u6qtnSHHZhVVMOLdtBVht4cNSn/lgzhiamSbTEmfEC0u+OrPDEAGk2Pe0AbMztvyuodWtDH687IsgJHJ6tpAn039+j/5dRf0ZP08pZbAZCD3PtHYZxdV2iJYGwfhmlhS/fDx1ghzlJdiChtZpWwL57XoEBg21Y0Z6hy9M5STWD0XXFFP+uddfHX+rVUhIrZxIoKAJNF9nUqRDFCXnFB7u4kqA/vwMs/uTIXq+LooPNlO4wM6R3XYncdInSI97uUxmSLU9SX4QGnescxMbCeKGs4IbHydKX1P+tes6XJEb1K5QY/q2VrKb482Ygp/4RfaI8EVByPSUoze5hMR+D+XLtNlR4yZfqn8/N1S5X+dgzqP69ymnRirQ2r/oAijUlFdTneN0Zm9HHB09MmSv9PIZwjZ1WYawfhkU0UHluHaBCCTKhMV4S48ijpFQc+Ewu/UESzIVV62xvQ8xnfWBDe+DmuEifb+cYbP0LSmHWU4mgQbw8sk8hTEYPdf41xSkjLzjE7Hee3VlR4Zr0N1NfFGyQ/rs97hbllozweICJx8ebIDolN6/R474RbK3CgQmcZ4V/HN0ZQgz/7nfRD0nW56bBdg8A58CkJ64tMJbVfH61oJBlPyv/k1hla8fnBi7gyzWYP8c1mAC7oC4oGjAfcE5gd2Dekoqm1F2kteGYaa/Ufom4OTuMPWpwDQDJEABmtFuzM0oQV9isN1yQJTvlAHwKl9MpRUt5IEkr2GMDtp1Z63zPFDLtB40NVbC3BJRQ6Al4hAieZA1KBlvCfXl/Cd5tNL/RHa/pHSMBL/JSx8aqLYLvulLd4DWq1tXJEJAcQSyh1Lq/Qq/mm13uWgOpvaH0WBdawN/LqzrfARyaEkT5N7UweTSKbyF4YvoGtvkXgNnMD3P3TXZzKZm/5vbJHwrlTk12wQZqEj3H9GM+TahhQkz27PD4OXVwe7Vv5CRqbcrrL9AnYc5KjqqBdp+vI9QaJCzEYAblGDGn3zF0OuLT91EFllpFllUjxeyluRapDRpzXzFTgZqFBXKdG7B+9QQegll4XwypcAzQ72ZdDvH+zkJ+zqnzz5hVHtFVdKcSJwzpFLClGG/XGxYDW5wJd1DXK+8gR5ZqHYGYPtALGihXhkRMa9fpiCkg9AleFekckpE7HstBnju6mErPHLKevpm63XQXfucvff5Dx1NXfGgyU6MMZPy6UEHf5vUjNy8PU130EI1LcL/FVGn9VYXDcs8514SiK/OjYdb+RQnybc7Hrn0xdN84YgxaxrjpZI2E625aAnwK4pocCswoa8PRNjUU5XDl+UAln7gBbaB8AsDk1iw4x48B88psq8rnKto72QUZLJOkjkU50slS9sem6FZZGgwT/ZvKtUKp+uRiiGmC57qBSSYANKkKZlTGVy6GoREBE11KmZuwhUmP8Z5Wa7Vr37X6tC846u8vH95ars9KMCWnIAFAI8gDCXoeseSQNc995DDQiGFsvIoUpszAYOeEfVopB9zPraNiYgw5cb3r5gJGAWX9S1oTJFT5NQfZKuM+XK0L7Paa5PUVppS/M5hMuf05D30jETC6p/hgvG5WX/le7KCvfaa6HA7dkPzBpE5QwxQDiILf25zNU7aheR9VGxc3iDXoc5edwGpxILAKJAYJ4xgptk/Ta5vWBvoOlFVgsFyF8t0ZxzN4yA+4GNs9ALDCT/9JOnvH9e1376P949Np/gg2iABzGJB21++6TKmHBvmMUHhCWhok9Mg7lg5jw2XgPk5aWCEqN6b7QPxmko0j/ennanka02W+nOQfk9JGgZSYVEkF153Bz9u20wYgeSQ7Ks24tppiGStYfg6VLxP7n5XVL8Frx9PNXebOCh5rkx7ERs0YYl2i7bjKzdtUGjnyoIX04x+trlyMclir0omTu+0eDSpX5hrH/Ky+0UQnErSBmdipUdrhJ76Gmj6nckdZlznB+t3kvRwN15+PtfhQRy8NNxUp+k6VKj/xDyt8AgG1WnrD9rX81vJJpu0pW/0eDqSUv4dP+ajUIpYHqarwe88bBr6s2vNue64M8tLtmvnJCkCZVEqXeYC7tbBD/RN9cWzieVyTBokvF+D4nwnxuizA8Pwk8eXeP21HCljX+e53H2OLggCxs6dwvB0aIBTO8O0nAmLu0SIav8YxL0fcCacSwKoqxBL5QNbN7CxU1wUlO/a2chNOZB4TdchBvQ0n6sfLkmzbxT80LMhhPXQET9He32DLbjzJXA+a/MdtiwWmvtjXVD/4Vhud0cJ9XHWWp/LGgPfbYUqz6ad3B5TDzw0dHtZ2i+7l4pQnrqGSVDtibvl4bPxmGwioObfpTY3olRDc98f7tP4zLYIIg8QOW+1qt5VlwZFnUGm4J4qWBokEcHVxib9EpM7Ae1t8DYCCduA4lT3nTMjgDmNoZmU8Cp14jtRCudQ1MtCurKtbCfN7n6ahU5hAP4CU1LdVfWzXZVhdLMK76QpwtIzyJQ8uSBR9mXYnjp26G76OrQ3fo9Lcesu2YNlK99MHDGW/QxB9uuSv8A8Z/KvkwLjpHvHyymnTxoviJBblhiIEiNWOC+xD8pcN/Hj5ZT1bcy/agx3CCpzKyUbjjD59GAHNB10as3uRKv/c5oISIIkZNKJN8x6IlRcJLoLZ6wS735DgaCaRwZ3LS6KbxxQzQAQvAwAAAAAAADge1ZHXWm7Z+x+kv0lrJufL+hB6e3Jm28vQauAAAAAAAAAFmYYRUN1j4tEjM7+72db3N++TiCGM7glu1B+f+aYa/eAgkLGjFwmo4nnMYMwxFC48cifNS4laLun0LjGOH3WvEXm8pHW5bqWr7rc59iHDl+vNaLXiwABsKTze349sjCaZLvHnm5H5zmA8w3BrbL2bPqr5Zc7oGHBDEkp8Anl4oLC+PdPbkp5iW8QTiuomQKTMNFpTWreWj4QV4QPbewmFWHk2OgFm6FVl9658O6kdFPXqYjARtLD4W8RZI+JrpgmpOpDtOTo/2Vc7FPMMM8fWB/q/fnUAkT1Thf7Hc+D6lNcacpSjheFDxe9C+6Ac3uy/xgw+MJJsotJb6gkAx/rw16jEosKrc9gWqbCfY4PC6yjD8WBwE1s5vm2qbR89HpgqTOPJs8UOPtlN9FgTanTr5qXXxdSh9XTl0L9t9ozaFDOwwRCdUR3YRri4CIhDzSqY9GTII4xdregGIdSP7dCeHfkOeUzWBJxAcG3s4nsqblqY8fd/+mV6fmi4DGrE1iUr7tcnbTYanIWR6pk43a1Jg/NHwu1wgHk4Q5zXz5d1nfiiQiMcr6Dtc3UkXhx3ti99djD9FpmLGcFFGGkGXTQVyEPFyQ9z9IOMY+aga359BT6FgXBC9ntHl8sThfraW+PfRRoIku/dzp+H+VYMLnDUQkUM3ySXrwun+zJ2TWkkxWlC/g9LJidP8HpZAfUOSmBVhgkAifbR4zYfCY34jWA56kyw8y/7ZtimWbLNueIZf6O3zTCdTIEzQf9OpFQkEdpK/ZyhewOX0CcqWDA79IwSebR1aCkcK4iUkxb+aChIL1dx+FOMdj+9M3iWxv+Wu6lv8+USIjJWeeBoGALGnFKSInqTMZVqmw6i4MKAl3jFFZaBPiKpUaqIGuDqIlj0lCdZ7KKWF4nNdhkoutoL/4KKmn8PydfsN2CyVwk4f2UUJF/B2yMP6saSx9Nl2Qtkgghz3RPMerOPAVqI80TckEcC+vqowPtEAoXutD+rblnQp97j8QYTh/RqmC5aAv5YbXYYHnDm/5ayqOsGxelIDLE66LOPspGNRQiTiev8VYQpJfQ/1ZxYrtyA+Wui7K+fKJtrD/ZW9R38te3KWI+DzwPg7kMhmnADAXk+17D6Ka4Z9ngIYvAXhB9qKODVrtNl10b0qG78p3mOWVDQkK/WJIfjdUaLyB/UTYDcU/K88g8jDOYljUeHFF88sFL8EOAg3vzmhl+qUf69pJZ0RFXhWJAi8qH0apLyMIf7TAKCHx2lP8GUVT3dQrLTD884c/BNDTWQQTuiWvDE0harA1yvM3ryeYAyDoOWejpPzwmz/j/oNSwWW7fhgN6kH2tWfwui+6nGagJOZs28Nd2ixfkGxJMT6YRbPlIN68WtUgA13JPP0zIQuUGMN63N5uslI0HkGXVhVf5lFCWcFc4cMeCPIqKGiTM+zDela3j08eF5JkP1jDGHZ4B+FX7YHEOB2i5lGgw8wf/Q4klGFjoI8C1SlLzJ9RwofzoqpFl7hK/FDVvcL1+dA1TCpfufEi+FaOQSmcqGFYdPHVaBZd6j2eZTqzFfrHQe2n+J+tKzqlZzgE+dndiEgm3BweQRpi1yM3R5rT1+ZQbE7Iadfe5P8pradHGNmGhAG8MVZlomv2RACJuBoEJqXKYtbw1iEeNlAM0sR0lxTrHNLJXyW9ReKOC24PFvI3x6c7eUpwgJXeWqcq4no3hLsev1egTYJDGRbp9TytLlc+Do87KEWIIhPh5kia3vE2ApBW//Qa2C89WbnCbv40AHfWoL+NtCMLsqDj5KKCgYrywv53B6N2s1t5wVKgfaLPN7WSxqRUq5WMFmITcIu3PoV/8MXOuzzbTpnO5VSos4cZXk7fFzI/U+478ZAQQux3V4HGFqKJi+zN1bC5rf1KToIu/d2R3ebgfKCcQhpVmkaz3vqYtTadFU5lkuqD+IioZHHK9EBibjn5uE8gwowobkCeRjCm5c1Ys0a8KZzT0YNmSt6YKXgVyjAg7a1JsJTvJ4FYXZLkh+INW9c6od7JQCpAX4Ec+1hy+3we8JO/7bAIu+8zui1G59iwbbb2NPjqcKaOG6rEDumam9BGEAZPfE0B8Ad/ArhvI1jv1KMPV4o2v1DOs3V3Lba4XPXyZAtMONfZtaiqsOO1hj2eWz35vNCQ7621jfgNcZPobZ/cL31Uqp07nsgpBOONvYHZ318EvVKRiafJ10i0TasT6Hxk1CGe/Xq620wk/iVydaoFhAZtZEFQZD3Jp37cRjQfFxdCRYkGouvRug/ejXvP3bV5afAwIllSjCv0hLKFZxwYcdx9Sr+bu68p6/kr1YwM22TarV2poC1fD9A+T4ATnIWY0qN5uaL6ZfkxgjJmmwdyQL96oQM5jXJqRur61k8k0enId9luaIVQ2p7PuOvSETAMPXFe4+4Pmrk4klP9PsoAX7ejbJqlbFAtteVW7mJapduiqvBxhJ1NqDtp+5EWgn2lIaKx7lwYOx6+uHr0l/gthcKCSwHFZMaxNPPxML3RgSmLD5/KNQDAB+RMX7fUzySBQsOJ6Ir83Al+mVr8OhUntk253C1vVnoFnZg+6PamQYLJd8em3fnnu/1/BMbCV/g05/2LuM9644Wv3yqYi8vVEJP6wn+6VylvNECtnXkVnZi4X72tf4XURDo/Gxu9FzHXYmD8UMQAUMZ6Y8rcmp5w6W9NodYxvHAmrDiQdXlnwawP33PhNy79f922LKJcFZcMzFw4WAfYBInBrR5a8VUn0XKN2r0TzH1nesQ5/RzJZqR828EIAsQkLM2Szq2zL1O4kDv47C93aGMH/b6u0bvgdaDrcKx8LmkXMP75fn/qL4BZc6eLCExyoRKzBUwO3XV2ApEqORIlqW2rLSM5k/jSOnGo16KAx1MFfQ6XcZ6gztmYQ+AqeZ0LFjQRo5ZgGnnwrUK5fNwEl9emlnaxacHrLaYab3IW/mtcR6zP0/EvIlYUEr6yCL4W6djXJmm5/Xwc3oOPPQXZfaXGnrhx0MCTxShZ6MUqN0idTFEVXyPcCEpTYnrctpIXzU2DuKoVrKRaTpp/n4Yyw80Du/xnpBMUHCiM5aw9Ba2+cvkYC6BgKnDOqql+fT/trPfrDUyBGKrDHQCfAoWuR6aeqYQczpLDXaexK5DhBpL2mE5Cdh9j+7MIc4HZt2nesFq+BfznNoyE91SK032KACIKLjClYl5Az1R/aQJquE9sDj2seWVcs+XTuXva33NQrU7pnPED/uBEUUTo26S1uAtPuGypAMM/Kl4sB6G85AFXqFE/w43V8IJXvPD/qL32hST7ZBGkZG/aFMBqCmJw3io3XVQrh7i6l97oI7ooODlv2koLRjC0x0nKFI00sm3jJ+k869s7ZeX+589KkqDFdrlfOBk5FMm++YdfVDrXTRH0ADNybdyAWUgws9kDOSECd/VJEpWJaRtngYxQWmy3S4dEyMBhsGvLoILosWkHxVLzjTxB8AiPXC0/uZRje1frJl7BJwDAta6WB74RE4KIyP7ijhf+hbu56K49CmgbNFy5X6l4xkGYi9/0VScoPW1zPZ3mrg5HL8Gk6PLYeObJSmi+007n2EyYXG6Yo9xZn2xZ95T/DIFQihaVUOyRLiQUZHZQYC6fP4BQmlVG1po36jiLARPsVdHKBn7AZPgbT0rTZk8WH683Lr0SOiAUoKNx8w3GwME86gYwUv7K8A1uXYkQXOJ6AUWLnGzFlGbnxtu2T2tS0U1iyzuxQMjh2LXl1OeQaFvbn+aG1V9SDAzpqjL/H9SRC66KY7stC4DgTxtkla+LDevqIrM6n5khGhjxvA7MIAR8RbHmPZ0/oGbQo9l5AMfk9xIKR+K7u0ZJUF+Mrg4f1zFLOkUYBeEpKZTgfTidsVVLh0yHp7RIKGAU9ABP1Vq53A80X0+zkaeRuZVEE6aq2STCnqlXHSHF8BNTaJtWSH5fa0jzC8OtLMU1b02ncOrK0raJVuJexAFuhBhgLiiAJSZKu2Nv1KGDV3AIhPsCqF8jeOSaIVgY9QuKUxmPzCK50z3fZfXyJ+v52NdUBCKcEw5PJGV6PMA5fFo2L1ClwK7r2o2Gq/lWC5Ut4Z9TRVJ9aizG7v3m78W1tpW35YKoW1aCh2ZwYDk20IKgkAgnx14cUfJzXvmgFn++4T0GnH9W342t2xquhqw1EzUSz2surnbskrOytT/0P0DGV/OJAFxKBPnnDOQ1Aj8ccwN//Fg7A+1YikYF0g7c2VoYrY0fc9TVfgChyOLRtP6Y7+rMyhmtbXFsB/tr6CLAxWhqnv1muyxRcbW+0yolcMifOCurLdHT+n9SDdxt+Kcl+NOGXt2wR9Jzf6q/iHf/9ZJcYqU8G4qxiJY8uP/g4D7wMsNrACGLa6oWXVCU6UuPlIyup4G1HrhEI89mLTzzF9iOxfvnRlXkxQlWMr6vC93WHNQXvzVl6Z6qezjN0fpKm1qCn3vthS8xR+FkeE5ySjE4nPU+/MqsFgmQ7+pgCuob66/QweH5NNB3S7mzPpZHFg1U8DiITKW6dIiAfDQ/0FququerHKhTukuyP1ASugMYAw1/7PpOAhsHxJfG5Dsgjrcvx3ivWAMh74N+cPvJiqDMhkg3+M4gG5+7xzoklgu9rwL9MjePGXg2xxpxZzLDy7C/jOe9nq/5UJznZgamwgiys1P2Kz8ncvb64A7R9Yxf/LKs5bdo1jXahk/vHqEITZVGt0Z7XUf7pyb/6chLZad4XQiIUwl6tmCp57Iv/jIlI2GHROIN/iAiZPM58ZQVeCeUrtRbv6Zy5qmz7BqoKAfoHduLyvu2CBTygzn4TfEiCMZ3MocYRBX7QuPB9m2YeY+BxbTSz5GcvAOdAPPUGMzFdKqprDQVVAGGyO9nUgDESzzHCuDx4QtaVgnvEi9c0o+JrdVNQid6N9TQDsmj+ual6ed70RV+ihw6G4xZjank1/pAi+xCesf4EBADnsxMZApJSFJmrtVlLCDt6MKcSUYG+5mEVCxQfPTq8evggZwziONlAfwmNn2qzMH0YWYF7lzMLK91SI3xp8Zf8BnmxE6CpiT/QwOBJa5fb5rKt8wCO/+D3wXZ/7KvbSuaAR9MDCiExRCH36f4LgQ9C7k8KkngrCHGcROfLuGVFVgzFVHGJ7aVspy3AQ0TpsLtEmH9FZOLK/T1W5Y8lkPCNuByEpoqyCjk6N3QUZ2PwAP93zkSQf6jHsNhmZAvMthTsWipSyk82shsMni9oFTM9G3edTV+pjPA9MhEzvuZkzd3xbsWEwyZBtYxEekE7OWTOEexwEx2VL6AqHO5Xy4lt+DHJKAfooagRxlDRF4LUVVNAXY2dptug8TnOj3oP/AaYGAlARA1tB1zxpwQNmweb7AynR+muYLZqJP7DtObqWu1Og5kecCEZfuxmYZGZ8jZ9yhBbRC6YxIQPcjUIwKdnU5blLoVCJ5600V2bsITIn4/lbrY5MAbvY93LMFJNslTr4DO4gpERyGDK6AEbVvjJLfL4fajyARx27aK4RhZjExhC5SFmmkgbmR1pF2BbLwD2/+WbYVin83xCSSmS4vjaODawfNRSGKJAWXCFWKQfhoBkLT4eRphpCxzvMHP2XqIdZYxubuOWPtJz29U9ZQzBwKzuLZtPK0p6TADMVzjlcKJK2CNqB08JXwojbyDSrwgT89rZsWKG5Bbu+6W7NzK/bbvJlP15fFWoj3hZogi3iqu+0s/JZDjOjEwwbWMMNkkLPmpWcNLITDGf9vsoiDa2TUuCWBPCCbArDQvWx1/xfXw/P0D3HsUfKJpeV/XrmLKRETHfnB3b6rtkMuXYddfreNwWyH7kLz7fYGMzCItqdWQcjwdASu5IX9uPkiglDkdh/L780/n1JfLRBtqs4mVkPLdNqh8nRVn7wu1U1ptF+dne1e7OfhfPZczNBKBleizyZT32xkILdkBdbsoQeGGdZldQLqjK4dv81O0u3sxfZP6miPS9575sBajQiJC3k9iMee5MJcFjjGF3UKzm2HyjJ7/IJgp1+qnwWQ8ky7DV81kAFSCX9pfUPiejqYyCE5/pNu4EqpVmh2EbS3igiI56WryvkkEnsY5Q8fUlOoyrKYQCovWbUr+TPUeUHnCKAhulWHCUJA43pE/GO+nYLOXGDbDdzi8j4G0aHUNCz/LgZ8ThCtu6Ls3M5Gtx9Ezd9I/tr+QXdSEl1jVhOROxLoGbcvUsuYn5ks/9Wro18FbDHqW7mhHFfSRXef/8VciWgmfwqbO0eB12fESUa6KZ/eV8x7hecw8N6L/cf9rfYL5+Of929bFULsV9dSLg6MOi0/HfTf+E9xQm4bjs3+aiFkO6tNsU4WzcYqln9wICInOOqZBJSP6qcGZ29Wtkm8i0nCBUr/WblsVZTcQVdWtiHQ5b+Yw+aPoYSNhcnXJuyAvN60KRWDaRpRt6CdK0T8rKfZVySKjkFkdlnXQ9KJxqkta2xFenLF5v+YV/okC58jNO+ry100AEJLHRpYP02FWgg///otAk2X56XhSmjAPUNvOkSVzcklmSNyMhqY/1+NG5ESavoQC7Km8daCBjeRxr6Z33VN6AaJkMmK0jIj/xgkmUFPKFmoqWWccSzFngFSHQIgtbcNcp2hoFjhuFHPuuxheGqXYU12M79mqbwaxGIjYMAW3urj8xQR9KVrPg6Sx/g6cecyXRWNKtGLw97UKWOl+/NRrz5AxFFA7FBF8emS9kYQevwepIA0hACdLAZetA8UkWgOhsGGHiapu/7N5GKCISV74VnazX/jjm5qZQ7YDCmaWHJ+VpJscQHh8cfKFgA+MvumEQIfnSetTrgXQ/WVQQ980NXgJ2NGHJ87IijsMTehu0Nn7/hLtdesDK64qZZN+okd9cgN7imHG602Inburisafvn4btweWuOxgd7FEQ79/hTjAiiYPejRcG1d45WET8FaXo7ggRseNBNHgI6hzZwDMKP/e3NNP1tfW9qP+fnfHbDHCyQvGP9vYmuJwWem9RRe1u2MNVZdcR1lXgwUd6QFkChhYQTEFqyJFNvJzfYyNF3hV4QDdlYaKglw7eqXWI3F/wwLokq9dTeNYZDmxSRfyufpDXKRO3KtqCFQlXaTLuJdeVT0vYmVxt5/cIvLjc0zB+mqV0QzAc3c2CU4teMrop1JdJ6MwnrjIPSRUvHBDoAi/3C4hCt5cXQAy67uNKKnwx3pnelTUM3UR5sz7EMBa1uPZjIfz0NaVh7UQp4qWfPNFznXd86IiGQzW3aUAWXOowtXASnk+I5lX+Y50BlI9zM8OhuE3zayseulVZZ2vUB9Zt9CYKqTBtGnlvI4Nly5FBBCPMVUmDem8o01yicTACdcyw0Szn6/q3tVjzg5lRnRBx8M5MH66BdnhxCZSpQv1RftXYCIO6xQUypWGP6Z+TgDk4fxWHMDNbnFt0I1TebfL/Hs2QBeOMdcElDQc0oEmCLPCNriydDR6kfX0YnJm5doqcsUc6Zyi118iWh+MMafu9NfO00BM7d5JhQgjLnPVg4q7SvKFuSOcgGl39dLC4TGbomC3QjhtCkxxMw5V5FdxoyPlx3YAXue29Z3B6RI9i474WtqRMc7UkrV8F3pgqH2X9E9WvOSjTmGe4OeDg7ekpm/5aE2/z4FHypVvD9+oP+L5XmklwZvlTSqp0r3QR7M5O/aBfGOnQqwbUC1+gsegvSPlhI3K1RWkycCSV35eneIursj9wPG8/Or7Go7IBWKSkflBA0UDgVWfG+fl5KxIwMiJZSNd26pfx2LgU7bmxuFTIlk+cd3JITFJglm0nFG6qtytsd/uk75w0ZNLWTBEbLDA3ee5C+R4hgsiGJKkN3U4gOzQOY/pyfgaXVpiMgk5+sUnOvrZgYkUzc2YBU80C2sLf1hJQ7Xa6tjguoebzQNuUIW3P9b23JbpGWOkdCFZgN6PT4duaD5p5Ee0Hjxs3huy+3brKx3ki5pxSRXSMge31meAP0t7F2thZXlWBtZWxwLqFuhpKnvymVEuVIjbYH8gwUN2FRBFte7Wahd+VlDWFt7oD2mqyTW5aDrAIYJr2mK0BRnysTE3EEHuUUnfyNp0P+BJVDfo0cRiBYOqNya5jyAv7+Mqw/4bcoShYeF0WDnOQGK796S8VYB4vJPKg8GE7FGJGRPgfOySJNhpGJF/hLDSeiwPFP+b6YVtzkcMK0mI3H+Ji0ZqDGcq+46C9kw3LHyOLSP05YlV//zH6Lz8636wZob5riIGOW3dYhkPh0+47ro1HSYBwVK0P9OI/+CsZhLCH++oTg0TlhI5tzEGUWRC2WgTLs6W/O9aRl93CpNhNl852bJyiXzF6d7L8tSP2BhuGTnMUH6DhzXipcPNdaVe9QWT0JBJhmWncslkGgdHZeB7y9EvD1LiRgr/OAkohOIyIRP9gABctTXjUbIhsL80syOW/hdLCOffqPj8lFToi1MYbS7MLQw13cP8d7x9j2qlbI362LGpWrWqPHWwj3Sv274QzIgArqu+f2XRNaQqK6IONO37q/2XLf+YzA18RIdUywEpa0XNZBxWo6NsBdHxUPrMLRKENiwYhZHuGZpFTsyl8yx9Lq6VLhm5ZYg5Pcl2AoTESPrquplFmFz73tAXZ0pOwcurH34GutaFxYwM7XjMJhxvhLijvMB+RmCyKhPYG6pfKNcv5adVyQUwSju4BCZ7JkkUugLBDHbmIyio9OxdqxC936zPm+rrgmREV3Iqy50DJEgSUNc7I8+zXQ9TWZlaPWDwmGbm/9Y/daGyCY2SwothASgqcmRchDnQRlhyV+e0Lp/jPjWYb0T+/g+C+yLqBI/4TqsAwhrlF8KwuQBB6SlPsocXmOiLCHwcOlLOhuxeBaG/hlr51CLVNdhgYspcoFJ+klW1MVdoU5zLuSiHmL0EZijL7wn57xv55RgVJ2dJCvI4y7If7DbE9tZcOk5DxpdkFbA8FsAA/famZ1BJI4i+86qOJgkV1ddZZ7yxseWn99sS9v0POZsjAIxjEjeZwMx8R94Kkg8JBDZ5K+HceDY/8tjQH8EeQ9gvg13MlvPIWMmoXDXkuAk81TU9Uh/U/3nGe2urQm3GaSeGd04bssX4qwZ7Y65sxOQtdQqI0zPwcXX2a8mF84jVLOLkooBq06RHxr/v9FxxBV4AITume4ZlmAOdel+8HqTwFOtpN/9WQ948czj06RgTiUl/V5pDhymcJDOaXBTZcgtOpHDWyxPk9DAHTL5mokT6nyuHI2fe1vfRC0OUPZgnyHeIj3rn45d0v7zxA8Qp2V0hgD2ip6CkAN33yB0hrU87xat12JTN8oFMzXTJ4RkzBBjhnzgHWA7+1SAuZU85P8MGp0PMP5PsXGZxJwqQpgbes22otKvDllIiG43WCWINZCt9hkIGSl1qp0l1ts48ygsonAZ084c4mkVwimwOo9PaGZwwJx3GIHgNXG716Jq1JJ7d7U2DYQQHtkf1HWpYPDYFobcES1z2gxPm7qHkKaJx8kjAzkhS9wt2Sb2dOtoTcQm+Knvh9HQXe1bTFbAXbjOKWM801NyGk/SKgwoT9lZ+sZ/bL0+ICBCqGrc/Dmmnqisu/+VRvFTXTi6wfMc1t+T6glubkBif6guatYMx8kTr6Fqs/6cjRp3jVmmPLsHriFmfhvVF3xdF1TR9Xob8BgaX95v0DLTYjV9ukiTwl4SqSIz3AvLvy8A+qGUWbj5zjHB4RiYSzvEwX5G8q/FO6MwNaZISL7RjhtEtY+nnDUdmGs4Y9oJtLwsY2KIBQTyYUowXBtOpsVV67tlSMZTg4YoBLhQxnC/P5U3Uv3tPdfuw9VjoRAI+4kpOguo8fK+wcCFhq5mH3vKFHiok9Yi419Uj12Qe0s1g924NpKfoSSEp/smz6IN/6Mo7wSNN1cvkErpLAKICmZtnAXt3DLhjXkEvvK1ctPAG3VflsE4zlB2hV+sLOwJBtZ8lweDoiYK3A8df57mdiOdNdnnKKmWkTQ/bMzi5I1bCqGLweX5f1z6PVh82auCQd0PtnQKXnypnzH+gwI9TTQVpLtNS9WuvGJB9jJlCCS54X4ZiLi+DBHisUPNsF38YNgfdF5JNuj7QGRyM0oLlYWgrYsUxBNOS0U6cMIbculTIeSEATu5nPP6i5hYYSqXmkXakbOUP9RIi5TAvlXZaqpSG1/PzvQwTz0tKHI6wM388A+G6HMO+U1CC9oI4o/qRFBkY5N7JudF2LFy2VJb52WNB7TJH0YdkuKpoe3/jOZ4PQ7j9A1UjYjHhAqRhmiAtTf1v6raHEfEcXw6ZaKGg6X04lmq5Fr3Bn42U8ob50foYpOt75A8NWAzxCthl4j79xjNyK2sGHDsfAAvkCUzES5lLQfJVmGzeRWHFbSKkOdtThHdIGPUqTy7Q5j7gARScwWDMflloUn/wJFlMSbZ8lERrnSLPLCJ5rEyqbGMVF9hkCf6WfI1I2igZII6CtLY++q9Z1XwY51/ptCtGqmpEVDQ25usE+rCWdetVcfbi4nWhphrwCQVCfAgAdy1vWEIIn88XHquZ2LSF78GdK8Od3jmYpjHnSx3kAfutTs+Q/tUwo4JOtnuzLR4HEaL/SzTGaXzFO5A5vjrm3uxHGMcCRmZLxil9fDJZUCAAC36yNbAJDxmpt++GBvZqrQ6LpI5C86kX5ZJqd+zhEml02joI0P3mQyaYieGOStx9wQZHnDjy1URqm6+I1IHJ2KN59xMrT4pJpwm6ccXSrNFUaZG+c6l3aBRgo9pmKynjfT79oPmg3iPRGTYVa2msNAaZWksTUFzBM7hkLsFcCQ++B7vmG2rg85fgo1+XPOouTRofTHipD6ssWZ4YDXC9hora/aJLRU0zKF1mQ9BNr7h31SNH0Wv+7Nq2dDvOuEvmFCCj9YDHRPZTRLpJbvD2xKa6vGBsXIl09h+5KAGtswhLMGNkPFczdvh44WoVs2qhn6wB77mN2aDsRpF5uEV6IYcq8ANem7q78bSONzd62atBtFeQca7b/FwcZYWxHMCQFirMMuDeTXSk9Hg03UyfN7PXKsJg4vGduQPobAZdDZ0uIVgRZs4uFEKtiJOny47/1mrw8SKWUctKzY1YgmdqDLgWqC0YND6gz2Hz0jDrTC1SreI+PhaoBmAOWWe4/Y1atXsIXd0QHwEY35q5DigC3xGgMw98ptFdvpmnoI5jCOzH0nkhYToStmqcNGd4NtyVFWtMzoKzEvQzSjReatiEwpJqB9XvNjAME4/ryJy/UxeRqYaiZMosOS632p2tQmTVQuF/NfjlyRsjwBlQMNgzsBg1ARZ8PWKL1soR28SkMdicD8aRTn/2tObOCzBlvJxSH0aCK55tkHrxmSE7TAWWFK/9sZ8ZheTSxkat6B81+jBQdzkx9Srcu/ivEiVl0I9AhjEemtQMnTecHERnW459Yvh8Y4eYU4WlAm1IqnGmZIihkOYRVefczuqXsLirqoIDmRffsH0bc7RbYoE0VsjtKseTZT5fbLYRqVrfYcyjXNCwN3e+9yMZcloMPw1yxjBCCEAUkwSTghPit9YnvjS5gGXKkUWfdHnusSPqDgQkOK1jG9Ercv9DR0+H0ga3pWFGQLz8296aQvTMjLPdxzZI2rSqOZpQehq7FiVBe3KzroXnUgl/U2pHVZansJzMSZpBDjR81ktmYMn6TpksOVKixg+S3gxL/HyFSbvEb1PPcs+yMTSU9IF9q/DPckMcUFuJdAJxApWMJudb6pAe+/gwlgJaxBywMmgfopchPWc6lQEDJdr7lENCyIbuo3DX5oQAr9tfwd986Kmikg0x4o4pO7k7okjuWhH2ZXjGUUGP+3XcXYwpcQ/WUpzb9lBomF7bdbCE/DYuKoP33AMDuURo8AC4EzsT+T/D8xJnOFamwMb5aaZPtviQQYFFRUGFNDD9+duhgCjXJUJ2TxMbCEYx9o8I2Y9vtk7Ug1gDE4NbcgMjJqqJNt65fT9r8mHTEnQCay+EtuDS+DkWfqy9Rkz/Rv0+OC7y0uRA4NdtOj2immyZxRr6ePyoXk60Xv2Ct478Bg+JJUYWK5em8Ew7eNoYvRInSwjiZUcArMLLl4FSGW520zAln/ErBHanIfGdLE5sUNRJH5s3MgMiQjuiMkx2bHmH9d7YhWk1WhVh8NNzVqwrhakLEIUdeZah3YyaBfIlt9pxH7g5vFk4juRwIFe7dOTZLVdWTSEni4Nx2ZnD4cL+brm1OenPzgXlbofHKHfDdksEGxlfgDjPHJ1el9SqeTZ25dzDtQ8ieOof19r1CZ8UyzPYDNl78RtA186qJBqrXniiMWTI6EFqFza1BRambd7LfNh1KT5x5yWI8nR6A1UQ/uy4HJ9fLH4X0DuJNwXAYf8+jsWmX56y1IbwJ1TN0ptU3iAjBkDcbAoGKjvy3TvIGNav0tzeq10HrMTbkfscKyGaaScqq1VlhPpBWh2xM3zv2bQnORslAqzvnYr0jUOkp3EGBaYcQGQZwaof9FKMzyq1/OFdYXANu5QF7bhIT+s7TIT3+eJO58xZdwt7xd9JVGCqEaij4K27KIhKxNWp+9j4bsVnlY200UbFWf5agJBkCNLPrE2RyT+yfd7vP78QNaS3ic7GukKhUPtyuQpEh+AW/ZJggFNlQyFXxi/Ad1hKVOC3igosY1F5mIX7v1crRRj7R+Ixj5DCsWRQ1QeQZrBqTOerXBUIP1Vtxnoxqxetqz/NfY6myjEUHez2IUPF9c/En0l/jnZOboJw7XenZi9hv6nIYWx5mGezI/o9AXBt4VUF73+HovGJ0DebQuNnYmrz8w07bSyAXsjuAO9qUDGGNvAbLN5aLvbQlaJpyKcmaOy4jP4NxJEFkG+aQYlyPQdkou7xlUePXS4n7jIuUIO/phlttsc1CPEzBtHCrcCVZtXRcX3Y1XBDlKJdjNOw9YGNpzu0vj8wYzm+hTTKF4TSlk7bAGu4i/ZkJS/g+yKjVVFqUNhydZqhDEPgydbhmp3aHbnkZ5ohfT0yAP2PdB/DkynLK9aAgY8aeqk8sO/YrT/Bq6yuwY3lGq3yQztC2uhQIEuugmMIhf8j1Pe33KEzMfNw7hrGjxaFrCQHP/AOF2EWliSPqYsBkNdR8Kt6uBZngyNKLy+vjJT4YVIDD46WZdanZZL8r0ef2k018mADF0XgXCqni7ezVvqGcKBbevNs1vFYZMD2Xp+0IVwoFcpXj2+ICTEwBH5JQsSBe5FFRzHm/7ty1Jh5QHLeOalUzZHnm7GAtF1wZVPhgp/gDpvMlLtghgUdP30HyxBaCgbTWva5GKfEE23arZhu00eroii5DM7iU8qt1SAs7zoe1fSO66E9G7wncWrzAIw/092nJi6CXzxZfeUBW1GC6qyubbocg1DqY87JPZZJckaC8Sw4XGcdaBXspHdnkuPohL+gg9BvTjBw7WpDRE8fwWsRqDuM0RdGmG+RPYCyOGZ33QJ44OXd7ozC/TQK8G47pel2sybpbRA1L2/0gWjP5ecihuGgQPDPSIDL6BloS41D5R7X7ysodYL8LIA2gJVp1LrJwOiQ/JmJvK2aFUWFC1R2g2fBfjvkLPx/+NLpMHUcNOpBzy1LKHu3Rz5KKw4NOKiuhy99TY73srfZdHNr0inF66+sZIinCHX/nKD+wZe3vI+ocx0uLEsB8vqq/nag0fqD2Q5bp86R6glaDfVdGVLEAiykarTEd5JYnuqLtAvK26ZxP6h6NBdXoUpN2p5iidfl0eVTYuG3iL1FG6XhkoGntUQOtEkJ+01YvsQ1qFYGKcNFTj8NMsWCUtA90P628FOJOr2BQEYMb0s8Yda8+iWDHIUhW3/iZ5/59pFZ5qqttK8T+AIY3Q2oEsQjgXs3U4bdpkTH1dZTPQxRinWmFjZOAGZbycwBzaGqsjRQEYdztVVICBMqro7jMPcOV7Z53q24dDK7BOJxZ0sEomCBeD1lSkd2ff/ciKAyJiVfwwVkd20nt2kCsZFqB1iuW3wSXxEwgajS3xG0Wb3VbOkG+Hjml74WNTT+A+BeE1XTWIiO2FRfK3y22kL20qac3GqSprnyVP6rPwBwrrZKD/DMGxZf70Xx20DwywH6IdEZCm040paCgiftjBaQA82QsuGfZfVdF3TfleV3W8QsUGmZASArmA3rUsMEEBz72yCnDUjAWwahOEldy1IzeskXmvkbnZIMP+Zmh4zHTPGwVo/++LjDFli6sNATBalOlV66D8U+l03hpm7njD4Yew0Uu6OmRX2Tn5ETdDWionwTH02ljGx3mRfXTUiPuM8q2K+TtqpyETEt3bP+DZ2nfrjBrOocKT0HmCo6zl59RF9G+ZWadzs8SU5KZGHtS29l7m+6JyVWxLrbiGVaHALUxMBzDWVNDKcj+dHvMVGLgelSNwLfB/o5/77oNPSxkRghZwGrooGxeBcN/lsw/owBmRNQj866HmjySqRg2auJdHOCGv+Y+iXXzkBwdWqinprDyA9RL0fzJUkQELlUT3xrC1pEjjkMhJ3eRp+5fAoB7Jw9l6mKEBQZ/k0kNvSmaOHle9OLH4tGOoEuy3x3m26GJJpvqLizafPFu1VFYZgFbLghZC68F4lJVXyxVh06Nhteh7uax9qdnGY2nhZCSTzpRNet11KaTXiiBZCWcbKI4hm8gYNbUNjbHCL+lGeeJK6DDm76GWO4uQ/ELUs5W4VisvYoJ22PUFZgEe/kgFkqkzCd1chN/5oyOPh55wjEVhmYMnrCxpvO4ntw7CwW/WBtKAvm8e/o9lLSbDYskLaF0kbZlV31RTohDpsrfTshvl+G0iyGCzFYebOXxwqZHEsnhnoGBYQLylI2oBXWKmAgTjXUsJcndqsbMnx9V5CJ8MtJcHk1I7mpj1dj33joBvb8+j3uZHFeFWDLs/Lsvu0HXYBgBrfPIiVcwNrXTj678TV6FuEgWibmnUmmRhMfchUxkeiYJD8wP+w4WRRvLOtkF6bUG5FEkjo/oVIkj7iIYngfzEiUfjnqNtGQrgJqQiN8Ix0MRjAMTy3MjhWPMEqT4cYYFTJB/sMJmtJF46EdE+mSkd2t0ETGD6zB1scJeRknRw761d9l/3+BNJ+c6NBU4hmArhoLJNojtzOrNAlEiOVsY75snz5l2nCE/NogZ2i4DPhs0dlGTykRxr9hhLTzl59b2rMBHz38t0NNBElnvCVLG3rsPRxOEeYHkkV1Mrw4BjFPNMSxnmhanjjigow5KjUH9v9bRNhJLwXqDAtOisF17SA4WR8zk/kY0jkTVZ793lRvDociqbGqtkjvJke7xmov7B+HampBXCNJZnOYVJxASDu/xg8zr5Rmv+z0774oBqrWSUos3kHXrnaRCuK6N+GolDc2Ya3DO+n+KgEe+coLe5eJdFLpjv6vqXo+hrL95qy5gJFsnQ6GUwT0gRtAyePzRiojWeClAt9x+wAHK7Izx/AEH24P6aw3lM2EAqlNR+U4k3/ClBXO6rRe16ps8pPnTnQD5OOMEQds+VweV9bZGAqMu2nXudDNr343Tjx6Mnt6ZY3ocFKf63/ZjnJKmxjr++Mwi9yfQ316XNOD6vR5eKWrU0NBurC0zHqGm8AMXRQ0ntGmuJfiGSuzl6PrddR6YvWlHCvOD3kXcMOKbjDnvnJyuPdeaQRNsUCbUDfC7lripNJvSiQ1KOR9tMVxzWS1hvhia1GSvmfHZcbIHFzn1EHKlejnxNe2WTsELvnN7yK85On4coQbqCD/TfgBnwCeTQvvCtgqT4nTIoe4FQPOGaRvPxXygKQpt7yVIaeBmX+9r6fYhbkhJvb4W3ctOmGrtfeqRd6wjv6Ree7dijfMkKVuMS3mCeUlbvntmgw8sSLJZMlvk5hhxMyH5d17/G/KXHWf02wvNDK7UiaSIBP+wMBDZ7kFmGx0z4uZki5sH4L1GoaKX2uRORc4aLCg8Rj/ASO9aa0kJajWD79swjzEJ8ChXG81lw9OFlB3tMSL20C2cX2fDJZjeVPV37TBdobtQLNqn2LDQiirMurq8RwOeqNgYjp1AWOjxlRqtWFo2hVlM8ttOHCxiiBsupa4POkX5Ia8B3cG/w6qbHuYinh+niQMdQXwavDq1x1NIBuveEicRQ++i5XFeWvBOb2UEfimI7XfIjrL7yef01TAc5EHFsU6ApEogC64TSGafxQ2w+T21wmxpde2Zc2tj6hHEzkMAYr5s72DaM0rsuzSjwSsCxEy59RRQDwUPWpB6XEUqDuGvW3ksaq1anW4gPcfbCnM5HYJK5bgXFYqzpkKkhBp7F+2WUp58/DGTc3dpjlZ906smjts/V1du2CFUzb9NiWgAIQTUazZfdmKWFc00FVPq2S+7TOfQtUSUpAglieAFuT5voU04dCCsI3gtrdMhCQ2CAW+Qm3gRZ9c8QeJoKDuehnC2pP9CU+GwXg/0QkfTG6TIfKKPPoZXG4oih1Ek4e/aHo0U4nHMh9IsIWgetwjtahenao3GM2e81wlZu1UtwKUUX3fxxu9r3GMoIHXmtqzD/Bzq2SZKguSz+4y1tHi1LXHM6Y6tl+DtbH3OtjcBbANC86WUle/Et73pts+XXnwO30a/wta7wf3Wcx8FdwaQD3NTGrGbxcEymfp8cYi6QFTdNIwQlx+u0LGwB3887WTYQXjzAQTA35H0iV6yRP+YduKPhStPL14VtoEML3iPAdTJ7x8O7bFJ/sIiS21CQ0JV1wE1HwU+wphfGvD0R91wdf9Lt/0Rzdu9XnT58QhHip+0UctrhJkU9jXL3GCali/7xqfGAHP2aM21hZIRYVV+yBQcJaiXXxKQsBf+BIY13ePhAcaMk3otQYzPmpvDcetPosKS8IawfoeRf4BM1lzjGEcT7SrEctgoz3PcdkUOm6QO52k3ief/BVg7ElKdqA7e3buuZPYvcM3tut0FOEK68UvoDH4VSrt21AvklWSgX8zQU5ntlzn5xuI2jhykPrbxk540xGWZ7ulgFiyouUw8dPzmpmTvDAVTThGAAAAA=;" parent="1" vertex="1">
          <mxGeometry x="160.63" y="100" width="358.01" height="250" as="geometry" />
        </mxCell>
        <mxCell id="qxiyLx1u7QL9JyjqSjR0-2" value="Spring Bean Life Cycle&lt;br&gt;" style="text;html=1;strokeColor=none;fillColor=none;align=center;verticalAlign=middle;whiteSpace=wrap;rounded=0;" parent="1" vertex="1">
          <mxGeometry x="190" y="50" width="230" height="40" as="geometry" />
        </mxCell>
        <mxCell id="qxiyLx1u7QL9JyjqSjR0-3" value="&lt;pre style=&quot;box-sizing: border-box; font-family: var(--bs-font-monospace); font-size: 15px; direction: ltr; unicode-bidi: bidi-override; margin-top: 0px; margin-bottom: 1rem; overflow: auto; width: 597.667px; border: 1px solid rgb(136, 136, 136); padding: 2px; color: rgb(116, 117, 121); text-align: start; background: rgb(238, 238, 238) !important; border-radius: 8px !important;&quot; class=&quot;prettyprint notranslate&quot;&gt;public class ExampleBean implements InitializingBean {&lt;br/&gt;   public void afterPropertiesSet() {&lt;br/&gt;      // do some initialization work&lt;br/&gt;   }&lt;br/&gt;}&lt;/pre&gt;" style="text;html=1;align=center;verticalAlign=middle;resizable=0;points=[];autosize=1;strokeColor=none;fillColor=none;" parent="1" vertex="1">
          <mxGeometry x="140" y="420" width="620" height="120" as="geometry" />
        </mxCell>
        <mxCell id="qxiyLx1u7QL9JyjqSjR0-4" value="&lt;pre style=&quot;box-sizing: border-box; font-family: var(--bs-font-monospace); font-size: 15px; direction: ltr; unicode-bidi: bidi-override; display: block; margin-top: 0px; margin-bottom: 1rem; overflow: auto; width: 597.667px; background: rgb(238, 238, 238) !important; border: 1px solid rgb(136, 136, 136); border-radius: 8px !important; padding: 2px; color: rgb(116, 117, 121); font-style: normal; font-variant-ligatures: normal; font-variant-caps: normal; font-weight: 400; letter-spacing: normal; orphans: 2; text-align: start; text-indent: 0px; text-transform: none; widows: 2; word-spacing: 0px; -webkit-text-stroke-width: 0px; text-decoration-thickness: initial; text-decoration-style: initial; text-decoration-color: initial;&quot; class=&quot;prettyprint notranslate prettyprinted&quot;&gt;&lt;span style=&quot;box-sizing: border-box; color: rgb(0, 0, 136);&quot; class=&quot;kwd&quot;&gt;public&lt;/span&gt;&lt;span style=&quot;box-sizing: border-box; color: rgb(0, 0, 0);&quot; class=&quot;pln&quot;&gt; &lt;/span&gt;&lt;span style=&quot;box-sizing: border-box; color: rgb(0, 0, 136);&quot; class=&quot;kwd&quot;&gt;class&lt;/span&gt;&lt;span style=&quot;box-sizing: border-box; color: rgb(0, 0, 0);&quot; class=&quot;pln&quot;&gt; &lt;/span&gt;&lt;span style=&quot;box-sizing: border-box; color: rgb(102, 0, 102);&quot; class=&quot;typ&quot;&gt;ExampleBean&lt;/span&gt;&lt;span style=&quot;box-sizing: border-box; color: rgb(0, 0, 0);&quot; class=&quot;pln&quot;&gt; &lt;/span&gt;&lt;span style=&quot;box-sizing: border-box; color: rgb(0, 0, 136);&quot; class=&quot;kwd&quot;&gt;implements&lt;/span&gt;&lt;span style=&quot;box-sizing: border-box; color: rgb(0, 0, 0);&quot; class=&quot;pln&quot;&gt; &lt;/span&gt;&lt;span style=&quot;box-sizing: border-box; color: rgb(102, 0, 102);&quot; class=&quot;typ&quot;&gt;DisposableBean&lt;/span&gt;&lt;span style=&quot;box-sizing: border-box; color: rgb(0, 0, 0);&quot; class=&quot;pln&quot;&gt; &lt;/span&gt;&lt;span style=&quot;box-sizing: border-box; color: rgb(102, 102, 0);&quot; class=&quot;pun&quot;&gt;{&lt;/span&gt;&lt;span style=&quot;box-sizing: border-box; color: rgb(0, 0, 0);&quot; class=&quot;pln&quot;&gt;&#xa;   &lt;/span&gt;&lt;span style=&quot;box-sizing: border-box; color: rgb(0, 0, 136);&quot; class=&quot;kwd&quot;&gt;public&lt;/span&gt;&lt;span style=&quot;box-sizing: border-box; color: rgb(0, 0, 0);&quot; class=&quot;pln&quot;&gt; &lt;/span&gt;&lt;span style=&quot;box-sizing: border-box; color: rgb(0, 0, 136);&quot; class=&quot;kwd&quot;&gt;void&lt;/span&gt;&lt;span style=&quot;box-sizing: border-box; color: rgb(0, 0, 0);&quot; class=&quot;pln&quot;&gt; destroy&lt;/span&gt;&lt;span style=&quot;box-sizing: border-box; color: rgb(102, 102, 0);&quot; class=&quot;pun&quot;&gt;()&lt;/span&gt;&lt;span style=&quot;box-sizing: border-box; color: rgb(0, 0, 0);&quot; class=&quot;pln&quot;&gt; &lt;/span&gt;&lt;span style=&quot;box-sizing: border-box; color: rgb(102, 102, 0);&quot; class=&quot;pun&quot;&gt;{&lt;/span&gt;&lt;span style=&quot;box-sizing: border-box; color: rgb(0, 0, 0);&quot; class=&quot;pln&quot;&gt;&#xa;      &lt;/span&gt;&lt;span style=&quot;box-sizing: border-box; color: rgb(136, 0, 0);&quot; class=&quot;com&quot;&gt;// do some destruction work&lt;/span&gt;&lt;span style=&quot;box-sizing: border-box; color: rgb(0, 0, 0);&quot; class=&quot;pln&quot;&gt;&#xa;   &lt;/span&gt;&lt;span style=&quot;box-sizing: border-box; color: rgb(102, 102, 0);&quot; class=&quot;pun&quot;&gt;}&lt;/span&gt;&lt;span style=&quot;box-sizing: border-box; color: rgb(0, 0, 0);&quot; class=&quot;pln&quot;&gt;&#xa;&lt;/span&gt;&lt;span style=&quot;box-sizing: border-box; color: rgb(102, 102, 0);&quot; class=&quot;pun&quot;&gt;}&lt;/span&gt;&lt;/pre&gt;" style="text;whiteSpace=wrap;html=1;" parent="1" vertex="1">
          <mxGeometry x="150" y="530" width="560" height="130" as="geometry" />
        </mxCell>
        <mxCell id="qxiyLx1u7QL9JyjqSjR0-5" value="&lt;pre style=&quot;box-sizing: border-box; font-family: var(--bs-font-monospace); font-size: 15px; direction: ltr; unicode-bidi: bidi-override; margin-top: 0px; margin-bottom: 1rem; overflow: auto; width: 597.667px; border: 1px solid rgb(136, 136, 136); padding: 2px; color: rgb(116, 117, 121); text-align: start; background: rgb(238, 238, 238) !important; border-radius: 8px !important;&quot; class=&quot;prettyprint notranslate prettyprinted&quot;&gt;&amp;lt;bean&lt;span style=&quot;box-sizing: border-box; color: rgb(0, 0, 0);&quot; class=&quot;pln&quot;&gt; &lt;/span&gt;&lt;span style=&quot;box-sizing: border-box; color: rgb(102, 0, 102);&quot; class=&quot;atn&quot;&gt;id&lt;/span&gt;&lt;span style=&quot;box-sizing: border-box; color: rgb(0, 0, 0);&quot; class=&quot;pln&quot;&gt; &lt;/span&gt;&lt;span style=&quot;box-sizing: border-box; color: rgb(102, 102, 0);&quot; class=&quot;pun&quot;&gt;=&lt;/span&gt;&lt;span style=&quot;box-sizing: border-box; color: rgb(0, 0, 0);&quot; class=&quot;pln&quot;&gt; &lt;/span&gt;&lt;span style=&quot;box-sizing: border-box; color: rgb(0, 136, 0);&quot; class=&quot;atv&quot;&gt;&quot;helloWorld&quot;&lt;/span&gt;&lt;span style=&quot;box-sizing: border-box; color: rgb(0, 0, 0);&quot; class=&quot;pln&quot;&gt; &lt;/span&gt;&lt;span style=&quot;box-sizing: border-box; color: rgb(102, 0, 102);&quot; class=&quot;atn&quot;&gt;class&lt;/span&gt;&lt;span style=&quot;box-sizing: border-box; color: rgb(0, 0, 0);&quot; class=&quot;pln&quot;&gt; &lt;/span&gt;&lt;span style=&quot;box-sizing: border-box; color: rgb(102, 102, 0);&quot; class=&quot;pun&quot;&gt;=&lt;/span&gt;&lt;span style=&quot;box-sizing: border-box; color: rgb(0, 0, 0);&quot; class=&quot;pln&quot;&gt; &lt;/span&gt;&lt;span style=&quot;box-sizing: border-box; color: rgb(0, 136, 0);&quot; class=&quot;atv&quot;&gt;&quot;com.tutorialspoint.HelloWorld&quot;&lt;/span&gt;&lt;span style=&quot;box-sizing: border-box; color: rgb(0, 0, 0);&quot; class=&quot;pln&quot;&gt; &lt;/span&gt;&lt;span style=&quot;box-sizing: border-box; color: rgb(102, 0, 102);&quot; class=&quot;atn&quot;&gt;init-method&lt;/span&gt;&lt;span style=&quot;box-sizing: border-box; color: rgb(0, 0, 0);&quot; class=&quot;pln&quot;&gt; &lt;/span&gt;&lt;span style=&quot;box-sizing: border-box; color: rgb(102, 102, 0);&quot; class=&quot;pun&quot;&gt;=&lt;/span&gt;&lt;span style=&quot;box-sizing: border-box; color: rgb(0, 0, 0);&quot; class=&quot;pln&quot;&gt; &lt;/span&gt;&lt;span style=&quot;box-sizing: border-box; color: rgb(0, 136, 0);&quot; class=&quot;atv&quot;&gt;&quot;init&quot;&lt;/span&gt;&lt;span style=&quot;box-sizing: border-box; color: rgb(0, 0, 0);&quot; class=&quot;pln&quot;&gt; &lt;br/&gt;      &lt;/span&gt;&lt;span style=&quot;box-sizing: border-box; color: rgb(102, 0, 102);&quot; class=&quot;atn&quot;&gt;destroy-method&lt;/span&gt;&lt;span style=&quot;box-sizing: border-box; color: rgb(0, 0, 0);&quot; class=&quot;pln&quot;&gt; &lt;/span&gt;&lt;span style=&quot;box-sizing: border-box; color: rgb(102, 102, 0);&quot; class=&quot;pun&quot;&gt;=&lt;/span&gt;&lt;span style=&quot;box-sizing: border-box; color: rgb(0, 0, 0);&quot; class=&quot;pln&quot;&gt; &lt;/span&gt;&lt;span style=&quot;box-sizing: border-box; color: rgb(0, 136, 0);&quot; class=&quot;atv&quot;&gt;&quot;destroy&quot;&lt;/span&gt;&lt;span style=&quot;box-sizing: border-box; color: rgb(0, 0, 136);&quot; class=&quot;tag&quot;&gt;&amp;gt;&lt;/span&gt;&lt;span style=&quot;box-sizing: border-box; color: rgb(0, 0, 0);&quot; class=&quot;pln&quot;&gt;&lt;br/&gt;      &lt;/span&gt;&lt;span style=&quot;box-sizing: border-box; color: rgb(0, 0, 136);&quot; class=&quot;tag&quot;&gt;&amp;lt;property&lt;/span&gt;&lt;span style=&quot;box-sizing: border-box; color: rgb(0, 0, 0);&quot; class=&quot;pln&quot;&gt; &lt;/span&gt;&lt;span style=&quot;box-sizing: border-box; color: rgb(102, 0, 102);&quot; class=&quot;atn&quot;&gt;name&lt;/span&gt;&lt;span style=&quot;box-sizing: border-box; color: rgb(0, 0, 0);&quot; class=&quot;pln&quot;&gt; &lt;/span&gt;&lt;span style=&quot;box-sizing: border-box; color: rgb(102, 102, 0);&quot; class=&quot;pun&quot;&gt;=&lt;/span&gt;&lt;span style=&quot;box-sizing: border-box; color: rgb(0, 0, 0);&quot; class=&quot;pln&quot;&gt; &lt;/span&gt;&lt;span style=&quot;box-sizing: border-box; color: rgb(0, 136, 0);&quot; class=&quot;atv&quot;&gt;&quot;message&quot;&lt;/span&gt;&lt;span style=&quot;box-sizing: border-box; color: rgb(0, 0, 0);&quot; class=&quot;pln&quot;&gt; &lt;/span&gt;&lt;span style=&quot;box-sizing: border-box; color: rgb(102, 0, 102);&quot; class=&quot;atn&quot;&gt;value&lt;/span&gt;&lt;span style=&quot;box-sizing: border-box; color: rgb(0, 0, 0);&quot; class=&quot;pln&quot;&gt; &lt;/span&gt;&lt;span style=&quot;box-sizing: border-box; color: rgb(102, 102, 0);&quot; class=&quot;pun&quot;&gt;=&lt;/span&gt;&lt;span style=&quot;box-sizing: border-box; color: rgb(0, 0, 0);&quot; class=&quot;pln&quot;&gt; &lt;/span&gt;&lt;span style=&quot;box-sizing: border-box; color: rgb(0, 136, 0);&quot; class=&quot;atv&quot;&gt;&quot;Hello World!&quot;&lt;/span&gt;&lt;span style=&quot;box-sizing: border-box; color: rgb(0, 0, 136);&quot; class=&quot;tag&quot;&gt;/&amp;gt;&lt;/span&gt;&lt;span style=&quot;box-sizing: border-box; color: rgb(0, 0, 0);&quot; class=&quot;pln&quot;&gt;&lt;br/&gt;   &lt;/span&gt;&lt;span style=&quot;box-sizing: border-box; color: rgb(0, 0, 136);&quot; class=&quot;tag&quot;&gt;&amp;lt;/bean&amp;gt;&lt;/span&gt;&lt;/pre&gt;" style="text;html=1;align=center;verticalAlign=middle;resizable=0;points=[];autosize=1;strokeColor=none;fillColor=none;" parent="1" vertex="1">
          <mxGeometry x="140" y="650" width="620" height="110" as="geometry" />
        </mxCell>
        <mxCell id="qxiyLx1u7QL9JyjqSjR0-6" value="&lt;font style=&quot;font-size: 13px;&quot;&gt;Instantiate&amp;nbsp; &amp;nbsp;-&amp;gt;&amp;nbsp; populate properties -&amp;gt; BeanNameAware(interface) -&amp;gt; Bean Factory Aware(interface) -&amp;gt;&lt;br&gt;Application Contaxt Aware(interface)&lt;br&gt;&lt;br&gt;-&amp;gt; &lt;br&gt;&lt;br&gt;BeanPostProcessor(pre initializing) &lt;br&gt;&amp;nbsp; &amp;nbsp; -&amp;gt; Intialiazing -&amp;gt; call custom inti method -&amp;gt;&amp;nbsp; &amp;nbsp;BeanPostProcessor(pre initializing)&lt;br&gt;&lt;br&gt;Bean is Ready to Use&lt;br&gt;---------------------------------------------------------------------------------------------------------&lt;br&gt;Container Shut Down&lt;br&gt;&lt;br&gt;Disposable -&amp;gt; call custom destroy method&lt;br&gt;&lt;/font&gt;" style="text;html=1;strokeColor=none;fillColor=none;align=center;verticalAlign=middle;whiteSpace=wrap;rounded=0;" parent="1" vertex="1">
          <mxGeometry x="100" y="870" width="560" height="170" as="geometry" />
        </mxCell>
        <mxCell id="qxiyLx1u7QL9JyjqSjR0-7" value="Spring Bean Life Cycle Step By Step" style="text;html=1;align=center;verticalAlign=middle;resizable=0;points=[];autosize=1;strokeColor=none;fillColor=none;fontSize=13;" parent="1" vertex="1">
          <mxGeometry x="260" y="790" width="240" height="30" as="geometry" />
        </mxCell>
      </root>
    </mxGraphModel>
  </diagram>
  <diagram id="UmwCqurZWQvkJk9OkuYg" name="Page-2">
    <mxGraphModel dx="794" dy="420" grid="1" gridSize="10" guides="1" tooltips="1" connect="1" arrows="1" fold="1" page="1" pageScale="1" pageWidth="850" pageHeight="1100" math="0" shadow="0">
      <root>
        <mxCell id="0" />
        <mxCell id="1" parent="0" />
        <mxCell id="Wq112HbV88uBGgY2IkqS-1" value="@Component&lt;br&gt;class A&lt;br&gt;{&lt;br&gt;&lt;br&gt;}" style="text;html=1;strokeColor=none;fillColor=none;align=center;verticalAlign=middle;whiteSpace=wrap;rounded=0;" vertex="1" parent="1">
          <mxGeometry x="220" y="190" width="60" height="30" as="geometry" />
        </mxCell>
        <mxCell id="Wq112HbV88uBGgY2IkqS-2" value="@Component&lt;br&gt;class B&lt;br&gt;{&lt;br&gt;&amp;nbsp; B{&lt;br&gt;name = &quot;&#39;;&lt;br&gt;}&lt;br&gt;}" style="text;html=1;strokeColor=none;fillColor=none;align=center;verticalAlign=middle;whiteSpace=wrap;rounded=0;" vertex="1" parent="1">
          <mxGeometry x="470" y="190" width="60" height="30" as="geometry" />
        </mxCell>
        <mxCell id="Wq112HbV88uBGgY2IkqS-3" value="B b;" style="text;html=1;strokeColor=none;fillColor=none;align=center;verticalAlign=middle;whiteSpace=wrap;rounded=0;" vertex="1" parent="1">
          <mxGeometry x="240" y="200" width="60" height="30" as="geometry" />
        </mxCell>
      </root>
    </mxGraphModel>
  </diagram>
</mxfile>
